SplineFontDB: 3.2
FontName: SVBasicManual
FullName: SV Basic Manual
FamilyName: SV Basic Manual
Weight: Book
Copyright: Copyright 2004 Johan Winge
Version: 1.00
ItalicAngle: 0
UnderlinePosition: 0
UnderlineWidth: 0
Ascent: 576
Descent: 144
InvalidEm: 0
sfntRevision: 0x00010000
LayerCount: 2
Layer: 0 1 "Back" 1
Layer: 1 1 "Fore" 0
XUID: [1021 398 -1852757990 11964]
StyleMap: 0x0040
FSType: 0
OS2Version: 1
OS2_WeightWidthSlopeOnly: 0
OS2_UseTypoMetrics: 0
CreationTime: 1073869049
ModificationTime: 1730402663
PfmFamily: 17
TTFWeight: 400
TTFWidth: 5
LineGap: -106
VLineGap: 0
Panose: 2 11 6 3 5 3 2 2 2 4
OS2TypoAscent: 579
OS2TypoAOffset: 0
OS2TypoDescent: -247
OS2TypoDOffset: 0
OS2TypoLinegap: -106
OS2WinAscent: 579
OS2WinAOffset: 0
OS2WinDescent: 247
OS2WinDOffset: 0
HheadAscent: 608
HheadAOffset: 0
HheadDescent: -147
HheadDOffset: 0
OS2SubXSize: 144
OS2SubYSize: 144
OS2SubXOff: 0
OS2SubYOff: 144
OS2SupXSize: 144
OS2SupYSize: 144
OS2SupXOff: 0
OS2SupYOff: 144
OS2StrikeYSize: 35
OS2StrikeYPos: 186
OS2Vendor: 'PfEd'
OS2CodePages: 00000001.80940000
OS2UnicodeRanges: 00000047.00000002.00000000.00000000
DEI: 91125
ShortTable: cvt  2
  24
  456
EndShort
ShortTable: maxp 16
  1
  0
  163
  124
  6
  119
  4
  1
  0
  16
  0
  0
  0
  46
  3
  1
EndShort
LangName: 1033 "" "" "" "SVI Basic Manual" "" "" "" "" "" "Johan Winge" "" "" "http://home.student.uu.se/jowi4905/"
LangName: 1024 "Copyright 2004 Johan Winge" "SVI Basic Manual" "Regular" "SVI Basic Manual" "SVI Basic Manual" "Version 1.00 " "SVIBasicManual"
Encoding: UnicodeBmp
UnicodeInterp: none
NameList: AGL For New Fonts
DisplaySize: -48
AntiAlias: 1
FitToEm: 0
WinInfo: 391 17 6
BeginChars: 65542 165

StartChar: .notdef
Encoding: 65536 -1 0
Width: 312
GlyphClass: 1
Flags: W
LayerCount: 2
Fore
SplineSet
24 0 m 1,0,-1
 24 480 l 1,1,-1
 264 480 l 1,2,-1
 264 0 l 1,3,-1
 24 0 l 1,0,-1
48 24 m 1,4,-1
 240 24 l 1,5,-1
 240 456 l 1,6,-1
 48 456 l 1,7,-1
 48 24 l 1,4,-1
EndSplineSet
EndChar

StartChar: exclam
Encoding: 33 33 4
Width: 364
GlyphClass: 1
Flags: W
LayerCount: 2
Fore
SplineSet
120 167 m 2,0,-1
 101 419 l 2,1,2
 101 422 101 422 101 424 c 0,3,4
 101 449 101 449 128 462 c 0,5,6
 135 465 135 465 143 465 c 0,7,8
 159 465 159 465 174 452 c 0,9,10
 187 439 187 439 187 424 c 0,11,12
 187 422 187 422 187 420 c 2,13,-1
 169 166 l 1,14,15
 162 132 162 132 144 132 c 0,16,17
 130 132 130 132 122 156 c 0,18,19
 120 162 120 162 120 167 c 2,0,-1
145 64 m 0,20,21
 166 64 166 64 174 44 c 0,22,23
 177 38 177 38 177 31 c 0,24,25
 177 18 177 18 168 8 c 0,26,27
 159 0 159 0 145 0 c 0,28,29
 122 0 122 0 114 19 c 0,30,31
 112 25 112 25 112 31 c 0,32,33
 112 53 112 53 132 62 c 0,34,35
 138 64 138 64 145 64 c 0,20,21
EndSplineSet
EndChar

StartChar: quotedbl
Encoding: 34 34 5
Width: 364
GlyphClass: 1
Flags: W
LayerCount: 2
Fore
SplineSet
49 277 m 2,0,-1
 33 418 l 2,1,2
 33 420 33 420 33 423 c 0,3,4
 33 441 33 441 54 452 c 0,5,6
 61 456 61 456 67 456 c 0,7,8
 80 456 80 456 92 445 c 0,9,10
 103 435 103 435 103 423 c 0,11,12
 103 421 103 421 103 419 c 2,13,-1
 88 276 l 2,14,15
 88 263 88 263 76 252 c 0,16,17
 73 248 73 248 69 248 c 0,18,19
 57 248 57 248 50 269 c 0,20,21
 49 274 49 274 49 277 c 2,0,-1
193 277 m 2,22,-1
 177 418 l 2,23,24
 177 420 177 420 177 423 c 0,25,26
 177 441 177 441 198 452 c 0,27,28
 205 456 205 456 211 456 c 0,29,30
 224 456 224 456 236 445 c 0,31,32
 247 435 247 435 247 423 c 0,33,34
 247 421 247 421 247 419 c 2,35,-1
 232 276 l 2,36,37
 232 263 232 263 220 252 c 0,38,39
 217 248 217 248 213 248 c 0,40,41
 201 248 201 248 194 269 c 0,42,43
 193 274 193 274 193 277 c 2,22,-1
EndSplineSet
EndChar

StartChar: numbersign
Encoding: 35 35 6
Width: 364
GlyphClass: 1
Flags: W
LayerCount: 2
Fore
SplineSet
216 151 m 0,0,1
 197 151 197 151 193 143 c 2,2,-1
 168 37 l 2,3,4
 161 2 161 2 144 0 c 0,5,6
 140 0 140 0 135 0 c 0,7,8
 123 0 123 0 119 4 c 0,9,10
 116 9 116 9 116 18 c 0,11,12
 116 26 116 26 118 37 c 2,13,-1
 201 429 l 2,14,15
 208 465 208 465 225 466 c 0,16,17
 230 467 230 467 234 467 c 0,18,19
 247 467 247 467 250 462 c 128,-1,20
 253 457 253 457 253 448 c 0,21,22
 253 440 253 440 251 429 c 2,23,-1
 227 317 l 1,24,-1
 252 316 l 2,25,26
 288 316 288 316 290 300 c 0,27,28
 290 296 290 296 290 291 c 0,29,30
 290 273 290 273 274 269 c 0,31,32
 266 267 266 267 252 266 c 2,33,-1
 221 265 l 1,34,-1
 204 201 l 1,35,-1
 231 201 l 2,36,37
 266 201 266 201 268 186 c 0,38,39
 268 181 268 181 268 176 c 0,40,41
 268 163 268 163 264 158 c 0,42,43
 256 151 256 151 238 151 c 0,44,45
 235 151 235 151 231 151 c 0,46,47
 223 151 223 151 216 151 c 0,0,1
44 150 m 1,48,-1
 29 151 l 2,49,50
 -5 151 -5 151 -6 166 c 0,51,52
 -7 171 -7 171 -7 176 c 0,53,54
 -7 189 -7 189 -3 194 c 0,55,56
 3 201 3 201 29 201 c 2,57,-1
 55 202 l 1,58,-1
 68 266 l 1,59,-1
 51 266 l 2,60,61
 18 266 18 266 14 282 c 0,62,63
 13 287 13 287 13 291 c 0,64,65
 13 309 13 309 30 313 c 0,66,67
 37 315 37 315 51 316 c 2,68,-1
 79 318 l 1,69,-1
 104 430 l 2,70,71
 111 465 111 465 128 466 c 0,72,73
 132 467 132 467 137 467 c 0,74,75
 149 467 149 467 153 462 c 0,76,77
 156 458 156 458 156 449 c 0,78,79
 156 441 156 441 154 430 c 2,80,-1
 71 38 l 2,81,82
 64 2 64 2 47 0 c 0,83,84
 42 0 42 0 38 0 c 0,85,86
 25 0 25 0 22 4 c 0,87,88
 19 9 19 9 19 18 c 0,89,90
 19 26 19 26 21 38 c 2,91,-1
 44 150 l 1,48,-1
EndSplineSet
EndChar

StartChar: dollar
Encoding: 36 36 7
Width: 364
GlyphClass: 1
Flags: W
LayerCount: 2
Fore
SplineSet
115 398 m 2,0,1
 115 413 115 413 106 413 c 0,2,3
 104 413 104 413 102 412 c 0,4,5
 78 406 78 406 62 385 c 0,6,7
 50 369 50 369 50 351 c 0,8,9
 50 317 50 317 74 294 c 0,10,11
 90 279 90 279 102 279 c 0,12,13
 105 279 105 279 108 280 c 0,14,15
 115 282 115 282 115 292 c 2,16,-1
 115 398 l 2,0,1
165 65 m 2,17,18
 165 58 165 58 168 56 c 0,19,20
 169 54 169 54 172 54 c 0,21,22
 176 54 176 54 181 56 c 0,23,24
 231 71 231 71 231 127 c 0,25,26
 231 182 231 182 183 210 c 0,27,28
 179 212 179 212 176 212 c 0,29,30
 168 212 168 212 166 203 c 0,31,32
 165 199 165 199 165 195 c 2,33,-1
 165 65 l 2,17,18
115 72 m 2,34,-1
 115 202 l 2,35,36
 115 220 115 220 96 224 c 0,37,38
 26 242 26 242 6 304 c 0,39,40
 0 324 0 324 0 348 c 0,41,42
 0 391 0 391 25 422 c 128,-1,43
 50 453 50 453 93 463 c 0,44,45
 112 467 112 467 116 491 c 0,46,47
 116 495 116 495 116 498 c 0,48,49
 116 516 116 516 124 524 c 0,50,51
 128 528 128 528 140 528 c 0,52,53
 153 528 153 528 158 523 c 0,54,55
 165 514 165 514 165 491 c 0,56,57
 167 467 167 467 189 465 c 0,58,59
 225 458 225 458 240 450 c 0,60,61
 276 430 276 430 276 408 c 0,62,63
 276 404 276 404 274 399 c 0,64,65
 272 393 272 393 267 389 c 0,66,67
 261 383 261 383 252 383 c 0,68,69
 237 383 237 383 213 399 c 0,70,71
 191 412 191 412 179 412 c 0,72,73
 165 412 165 412 165 394 c 2,74,-1
 165 274 l 2,75,76
 165 269 165 269 174 266 c 0,77,78
 218 258 218 258 248 222 c 0,79,80
 282 183 282 183 282 130 c 0,81,82
 282 56 282 56 226 22 c 0,83,84
 208 11 208 11 183 5 c 0,85,86
 165 1 165 1 165 -14 c 2,87,-1
 165 -37 l 2,88,89
 165 -70 165 -70 150 -73 c 0,90,91
 145 -74 145 -74 140 -74 c 0,92,93
 128 -74 128 -74 124 -70 c 0,94,95
 115 -61 115 -61 115 -37 c 2,96,-1
 115 -17 l 2,97,98
 114 -7 114 -7 107.5 -3 c 128,-1,99
 101 1 101 1 92 3 c 0,100,101
 63 6 63 6 38 20 c 0,102,103
 29 25 29 25 14 40 c 0,104,105
 2 52 2 52 -1 72 c 0,106,107
 -2 76 -2 76 -2 79 c 0,108,109
 -2 90 -2 90 4 93 c 0,110,111
 15 98 15 98 22 98 c 0,112,113
 25 98 25 98 28 97 c 0,114,115
 40 93 40 93 54 73 c 0,116,117
 68 57 68 57 90 53 c 0,118,119
 93 52 93 52 96 52 c 0,120,121
 108 52 108 52 113 63 c 0,122,123
 115 67 115 67 115 72 c 2,34,-1
EndSplineSet
EndChar

StartChar: percent
Encoding: 37 37 8
Width: 364
GlyphClass: 1
Flags: W
LayerCount: 2
Fore
SplineSet
0 336 m 2,0,-1
 0 379 l 2,1,2
 0 443 0 443 32 458 c 0,3,4
 52 467 52 467 77 467 c 0,5,6
 118 467 118 467 136 448 c 0,7,8
 155 427 155 427 155 378 c 2,9,-1
 155 334 l 2,10,11
 155 288 155 288 136 270 c 0,12,13
 118 254 118 254 77 254 c 0,14,15
 24 254 24 254 10 283 c 0,16,17
 0 302 0 302 0 336 c 2,0,-1
46 354 m 0,18,19
 46 322 46 322 50 311 c 0,20,21
 55 294 55 294 77 294 c 0,22,23
 108 294 108 294 110 329 c 0,24,25
 110 340 110 340 110 353 c 0,26,27
 110 388 110 388 106 398 c 0,28,29
 98 417 98 417 77 417 c 0,30,31
 55 417 55 417 50 398 c 0,32,33
 46 387 46 387 46 354 c 0,18,19
299 433 m 0,34,35
 299 425 299 425 289 410 c 2,36,-1
 228 323 l 2,37,38
 216 307 216 307 206 307 c 0,39,40
 204 307 204 307 201 308 c 0,41,42
 187 316 187 316 187 324 c 0,43,44
 187 330 187 330 197 346 c 2,45,-1
 259 434 l 2,46,47
 269 450 269 450 279 450 c 0,48,49
 282 450 282 450 286 448 c 0,50,51
 299 443 299 443 299 433 c 0,34,35
145 96 m 2,52,-1
 145 140 l 2,53,54
 145 204 145 204 178 219 c 0,55,56
 197 228 197 228 222 228 c 0,57,58
 263 228 263 228 280 209 c 0,59,60
 300 188 300 188 300 139 c 2,61,-1
 300 96 l 2,62,63
 300 49 300 49 280 31 c 0,64,65
 263 15 263 15 222 15 c 0,66,67
 159 15 159 15 149 58 c 0,68,69
 145 76 145 76 145 96 c 2,52,-1
190 115 m 0,70,71
 190 83 190 83 194 72 c 0,72,73
 200 55 200 55 222 55 c 0,74,75
 243 55 243 55 250 72 c 0,76,77
 255 84 255 84 255 114 c 0,78,79
 255 162 255 162 240 173 c 0,80,81
 234 178 234 178 222 178 c 0,82,83
 192 178 192 178 190 140 c 0,84,85
 190 128 190 128 190 115 c 0,70,71
113 160 m 0,86,87
 113 153 113 153 102 138 c 2,88,-1
 39 50 l 2,89,90
 27 34 27 34 17 34 c 0,91,92
 15 34 15 34 12 36 c 0,93,94
 -1 41 -1 41 -1 51 c 0,95,96
 -1 60 -1 60 9 73 c 2,97,-1
 72 161 l 2,98,99
 84 177 84 177 94 177 c 0,100,101
 96 177 96 177 98 176 c 0,102,103
 104 173 104 173 110 166 c 0,104,105
 113 164 113 164 113 160 c 0,86,87
EndSplineSet
EndChar

StartChar: ampersand
Encoding: 38 38 9
Width: 364
GlyphClass: 1
Flags: W
LayerCount: 2
Fore
SplineSet
138 409 m 0,0,1
 137 409 137 409 135 409 c 0,2,3
 129 409 129 409 123 402 c 0,4,5
 117 396 117 396 117 386 c 0,6,7
 117 362 117 362 128 348 c 0,8,9
 131 344 131 344 136 343 c 0,10,11
 145 343 145 343 152 360 c 0,12,13
 153 363 153 363 159 386 c 0,14,15
 159 400 159 400 146 407 c 0,16,17
 143 409 143 409 138 409 c 0,0,1
289 192 m 0,18,19
 232 165 232 165 232 129 c 0,20,21
 232 114 232 114 241 98 c 0,22,23
 249 84 249 84 268 68 c 0,24,25
 275 62 275 62 282 58 c 0,26,27
 301 47 301 47 301 33 c 0,28,29
 301 29 301 29 299 25 c 0,30,31
 297 20 297 20 295 16 c 0,32,33
 289 8 289 8 277 8 c 0,34,35
 272 8 272 8 268 9 c 0,36,37
 246 13 246 13 228 35 c 0,38,39
 215 51 215 51 208 51 c 128,-1,40
 201 51 201 51 194 42 c 128,-1,41
 187 33 187 33 181 26 c 0,42,43
 165 7 165 7 116 7 c 0,44,45
 28 7 28 7 4 65 c 0,46,47
 -5 87 -5 87 -5 121 c 0,48,49
 -5 125 -5 125 -5 128 c 0,50,51
 -5 178 -5 178 18 214 c 0,52,53
 35 240 35 240 81 281 c 0,54,55
 91 291 91 291 91 304 c 0,56,57
 91 308 91 308 85 329 c 0,58,59
 83 338 83 338 79 346 c 0,60,61
 66 370 66 370 66 389 c 0,62,63
 66 391 66 391 66 393 c 0,64,65
 68 417 68 417 86 438 c 0,66,67
 105 462 105 462 141 462 c 0,68,69
 192 462 192 462 206 417 c 0,70,71
 210 404 210 404 210 391 c 0,72,73
 210 361 210 361 200 344 c 2,74,-1
 195 336 l 2,75,76
 193 333 193 333 190 330 c 0,77,78
 177 311 177 311 172 282 c 0,79,80
 172 279 172 279 172 276 c 0,81,82
 172 264 172 264 178 240 c 0,83,84
 187 207 187 207 200 200 c 0,85,86
 203 198 203 198 206 198 c 0,87,88
 216 198 216 198 228 216 c 0,89,90
 237 229 237 229 241 232 c 0,91,92
 255 245 255 245 275 245 c 0,93,94
 290 245 290 245 294 237 c 0,95,96
 301 223 301 223 301 214 c 0,97,98
 301 199 301 199 289 192 c 0,18,19
87 232 m 2,99,-1
 70 212 l 2,100,101
 52 192 52 192 46 164 c 0,102,103
 42 148 42 148 41 124 c 0,104,105
 41 71 41 71 78 56 c 0,106,107
 89 51 89 51 101 51 c 0,108,109
 155 51 155 51 169 88 c 0,110,111
 174 102 174 102 174 123 c 0,112,113
 174 151 174 151 141 206 c 2,114,-1
 127 231 l 2,115,116
 121 243 121 243 109 243 c 0,117,118
 105 243 105 243 99 241 c 128,-1,119
 93 239 93 239 87 232 c 2,99,-1
EndSplineSet
EndChar

StartChar: quotesingle
Encoding: 39 39 10
Width: 364
GlyphClass: 1
Flags: W
LayerCount: 2
Fore
SplineSet
122 277 m 2,0,-1
 106 418 l 2,1,2
 106 420 106 420 106 423 c 0,3,4
 106 441 106 441 128 452 c 0,5,6
 134 456 134 456 141 456 c 0,7,8
 153 456 153 456 166 445 c 0,9,10
 176 435 176 435 176 423 c 0,11,12
 176 421 176 421 176 419 c 2,13,-1
 161 276 l 2,14,15
 161 261 161 261 150 252 c 0,16,17
 146 248 146 248 142 248 c 0,18,19
 130 248 130 248 124 269 c 0,20,21
 122 274 122 274 122 277 c 2,0,-1
EndSplineSet
EndChar

StartChar: parenleft
Encoding: 40 40 11
Width: 364
GlyphClass: 1
Flags: W
LayerCount: 2
Fore
SplineSet
98 222 m 0,0,1
 98 151 98 151 146 56 c 0,2,3
 169 13 169 13 210 -35 c 0,4,5
 222 -49 222 -49 222 -57 c 0,6,7
 222 -61 222 -61 220 -64 c 0,8,9
 211 -75 211 -75 205 -75 c 0,10,11
 204 -75 204 -75 204 -74 c 0,12,13
 195 -73 195 -73 183 -60 c 0,14,15
 99 31 99 31 70 148 c 0,16,17
 60 189 60 189 60 230 c 0,18,19
 60 345 60 345 130 452 c 0,20,21
 151 484 151 484 175 511 c 0,22,23
 188 526 188 526 197 526 c 0,24,25
 200 526 200 526 202 524 c 0,26,27
 215 514 215 514 215 508 c 0,28,29
 215 500 215 500 203 486 c 0,30,31
 156 431 156 431 126 356 c 0,32,33
 98 286 98 286 98 222 c 0,0,1
EndSplineSet
EndChar

StartChar: parenright
Encoding: 41 41 12
Width: 364
GlyphClass: 1
Flags: W
LayerCount: 2
Fore
SplineSet
74 -67 m 0,0,1
 67 -67 67 -67 63 -61 c 0,2,3
 56 -56 56 -56 56 -49 c 0,4,5
 56 -41 56 -41 67 -28 c 2,6,-1
 90 0 l 2,7,8
 134 55 134 55 161 132 c 0,9,10
 180 186 180 186 180 229 c 0,11,12
 180 326 180 326 118 432 c 0,13,14
 97 470 97 470 74 493 c 0,15,16
 63 506 63 506 63 515 c 0,17,18
 63 522 63 522 70 527 c 0,19,20
 76 533 76 533 82 533 c 0,21,22
 89 533 89 533 102 518 c 0,23,24
 182 431 182 431 209 318 c 0,25,26
 218 279 218 279 218 238 c 0,27,28
 218 122 218 122 142 8 c 0,29,30
 120 -25 120 -25 95 -53 c 0,31,32
 83 -67 83 -67 74 -67 c 0,0,1
EndSplineSet
EndChar

StartChar: asterisk
Encoding: 42 42 13
Width: 364
GlyphClass: 1
Flags: W
LayerCount: 2
Fore
SplineSet
138 245 m 0,0,1
 132 245 132 245 130 240 c 2,2,-1
 110 206 l 2,3,4
 95 181 95 181 83 181 c 0,5,6
 81 181 81 181 78 182 c 0,7,8
 64 189 64 189 62 191 c 0,9,10
 57 195 57 195 57 203 c 0,11,12
 57 213 57 213 67 231 c 2,13,-1
 88 268 l 2,14,15
 89 270 89 270 89 271 c 0,16,17
 89 276 89 276 80 280 c 0,18,19
 77 282 77 282 75 282 c 2,20,-1
 37 282 l 2,21,22
 2 282 2 282 0 298 c 0,23,24
 0 303 0 303 0 307 c 0,25,26
 0 320 0 320 4 324 c 0,27,28
 12 332 12 332 37 332 c 2,29,-1
 74 332 l 2,30,31
 80 332 80 332 85 340 c 0,32,33
 89 345 89 345 89 349 c 0,34,35
 89 351 89 351 87 353 c 2,36,-1
 70 386 l 2,37,38
 60 403 60 403 60 413 c 0,39,40
 60 422 60 422 66 426 c 0,41,42
 78 435 78 435 87 435 c 0,43,44
 89 435 89 435 91 434 c 0,45,46
 102 431 102 431 114 410 c 2,47,-1
 131 378 l 2,48,49
 133 374 133 374 142 372 c 0,50,51
 143 372 143 372 144 372 c 0,52,53
 150 372 150 372 152 377 c 2,54,-1
 171 409 l 2,55,56
 185 433 185 433 198 433 c 0,57,58
 201 433 201 433 203 432 c 0,59,60
 224 425 224 425 224 410 c 0,61,62
 224 407 224 407 223 404 c 0,63,64
 221 396 221 396 214 384 c 2,65,-1
 195 352 l 2,66,67
 194 350 194 350 194 346 c 0,68,69
 194 339 194 339 198 334 c 0,70,71
 201 332 201 332 203 332 c 2,72,-1
 243 332 l 2,73,74
 279 332 279 332 280 316 c 0,75,76
 281 312 281 312 281 307 c 0,77,78
 281 295 281 295 276 290 c 0,79,80
 268 282 268 282 243 282 c 2,81,-1
 201 282 l 2,82,83
 196 282 196 282 192 275 c 0,84,85
 191 272 191 272 191 269 c 128,-1,86
 191 266 191 266 192 264 c 2,87,-1
 211 229 l 2,88,89
 220 212 220 212 220 201 c 0,90,91
 220 193 220 193 214 188 c 0,92,93
 201 179 201 179 193 179 c 0,94,95
 191 179 191 179 190 180 c 0,96,97
 180 183 180 183 167 205 c 2,98,-1
 147 242 l 2,99,100
 146 245 146 245 138 245 c 0,0,1
EndSplineSet
EndChar

StartChar: plus
Encoding: 43 43 14
Width: 364
GlyphClass: 1
Flags: W
LayerCount: 2
Fore
SplineSet
130 110 m 2,0,1
 130 123 130 123 118 128 c 0,2,3
 115 129 115 129 110 129 c 2,4,-1
 36 129 l 2,5,6
 -1 129 -1 129 -5 146 c 0,7,8
 -6 150 -6 150 -6 154 c 0,9,10
 -6 166 -6 166 0 172 c 0,11,12
 7 179 7 179 36 179 c 2,13,-1
 108 179 l 2,14,15
 119 179 119 179 128 192 c 0,16,17
 130 195 130 195 130 198 c 2,18,-1
 129 260 l 2,19,20
 129 297 129 297 144 298 c 0,21,22
 149 299 149 299 154 299 c 0,23,24
 167 299 167 299 172 294 c 0,25,26
 179 287 179 287 179 260 c 2,27,-1
 179 200 l 2,28,29
 179 188 179 188 194 181 c 0,30,31
 199 179 199 179 203 179 c 2,32,-1
 274 179 l 2,33,34
 316 179 316 179 318 164 c 0,35,36
 318 159 318 159 318 154 c 0,37,38
 318 142 318 142 312 138 c 0,39,40
 302 129 302 129 274 129 c 2,41,-1
 201 129 l 2,42,43
 190 129 190 129 182 116 c 0,44,45
 179 113 179 113 179 110 c 2,46,-1
 179 47 l 2,47,48
 179 12 179 12 164 9 c 0,49,50
 159 8 159 8 154 8 c 0,51,52
 142 8 142 8 136 14 c 0,53,54
 129 21 129 21 129 47 c 2,55,-1
 130 110 l 2,0,1
EndSplineSet
EndChar

StartChar: comma
Encoding: 44 44 15
Width: 364
GlyphClass: 1
Flags: W
LayerCount: 2
Fore
SplineSet
143 3 m 1,0,1
 120 3 120 3 102 22 c 0,2,3
 82 41 82 41 82 63 c 128,-1,4
 82 85 82 85 100 100 c 0,5,6
 115 112 115 112 141 112 c 0,7,8
 164 112 164 112 180.5 95.5 c 128,-1,9
 197 79 197 79 197 56 c 0,10,11
 197 16 197 16 160 -44 c 0,12,13
 124 -105 124 -105 102 -105 c 0,14,15
 92 -105 92 -105 88 -94 c 0,16,17
 88 -91 88 -91 88 -88 c 0,18,19
 88 -77 88 -77 99 -67 c 0,20,21
 124 -45 124 -45 138 -16 c 0,22,23
 142 -7 142 -7 143 3 c 1,0,1
EndSplineSet
EndChar

StartChar: hyphen
Encoding: 45 45 16
Width: 364
GlyphClass: 1
Flags: W
LayerCount: 2
Fore
SplineSet
298 154 m 256,0,1
 298 129 298 129 255 129 c 2,2,-1
 67 129 l 2,3,4
 26 129 26 129 24 142 c 0,5,6
 24 147 24 147 24 154 c 0,7,8
 24 172 24 172 32 176 c 0,9,10
 37 179 37 179 46 179 c 2,11,-1
 162 179 l 1,12,-1
 162 179 l 1,13,-1
 161 179 l 1,14,-1
 158 179 l 1,15,-1
 255 179 l 2,16,17
 298 179 298 179 298 154 c 256,0,1
EndSplineSet
EndChar

StartChar: period
Encoding: 46 46 17
Width: 364
GlyphClass: 1
Flags: W
LayerCount: 2
Fore
SplineSet
141 112 m 256,0,1
 164 112 164 112 180.5 95.5 c 128,-1,2
 197 79 197 79 197 56 c 128,-1,3
 197 33 197 33 180.5 16.5 c 128,-1,4
 164 0 164 0 141 0 c 128,-1,5
 118 0 118 0 101.5 16.5 c 128,-1,6
 85 33 85 33 85 56 c 128,-1,7
 85 79 85 79 101.5 95.5 c 128,-1,8
 118 112 118 112 141 112 c 256,0,1
EndSplineSet
EndChar

StartChar: slash
Encoding: 47 47 18
Width: 364
GlyphClass: 1
Flags: W
LayerCount: 2
Fore
SplineSet
2 -2 m 2,0,-1
 259 501 l 2,1,2
 272 526 272 526 286 526 c 0,3,4
 288 526 288 526 290 526 c 0,5,6
 311 521 311 521 311 504 c 0,7,8
 311 493 311 493 303 478 c 2,9,-1
 46 -25 l 2,10,11
 32 -50 32 -50 20 -50 c 0,12,13
 18 -50 18 -50 16 -50 c 0,14,15
 3 -45 3 -45 0 -41 c 0,16,17
 -5 -36 -5 -36 -5 -27 c 0,18,19
 -5 -17 -5 -17 2 -2 c 2,0,-1
EndSplineSet
EndChar

StartChar: zero
Encoding: 48 48 19
Width: 364
GlyphClass: 1
Flags: W
LayerCount: 2
Fore
SplineSet
281 319 m 2,0,-1
 281 148 l 2,1,2
 281 32 281 32 200 8 c 0,3,4
 177 1 177 1 147 1 c 0,5,6
 144 1 144 1 140 1 c 0,7,8
 34 1 34 1 9 80 c 0,9,10
 0 108 0 108 0 148 c 2,11,-1
 0 319 l 2,12,13
 0 431 0 431 76 457 c 0,14,15
 103 466 103 466 140 466 c 0,16,17
 144 466 144 466 148 466 c 0,18,19
 216 466 216 466 248 434 c 0,20,21
 281 400 281 400 281 319 c 2,0,-1
231 145 m 2,22,-1
 231 322 l 2,23,24
 231 375 231 375 212 396 c 0,25,26
 194 417 194 417 140 417 c 0,27,28
 66 417 66 417 54 363 c 0,29,30
 50 345 50 345 50 322 c 2,31,-1
 50 145 l 2,32,33
 50 96 50 96 70 74 c 0,34,35
 90 50 90 50 140 50 c 0,36,37
 213 50 213 50 226 104 c 0,38,39
 231 121 231 121 231 145 c 2,22,-1
EndSplineSet
EndChar

StartChar: one
Encoding: 49 49 20
Width: 364
GlyphClass: 1
Flags: W
LayerCount: 2
Fore
SplineSet
170 38 m 2,0,-1
 170 385 l 2,1,2
 170 394 170 394 161 396 c 0,3,4
 159 396 159 396 157 396 c 0,5,6
 149 396 149 396 139 388 c 2,7,-1
 99 353 l 1,8,-1
 88 344 l 2,9,10
 76 334 76 334 66 334 c 0,11,12
 65 333 65 333 64 333 c 0,13,14
 60 333 60 333 57 337 c 0,15,16
 50 343 50 343 50 350 c 0,17,18
 50 363 50 363 61 378 c 0,19,20
 66 384 66 384 71 388 c 0,21,22
 84 406 84 406 129 440 c 0,23,24
 165 467 165 467 182 467 c 0,25,26
 220 467 220 467 220 430 c 2,27,-1
 220 38 l 2,28,29
 220 2 220 2 204 0 c 0,30,31
 200 0 200 0 195 0 c 0,32,33
 182 0 182 0 178 4 c 0,34,35
 170 12 170 12 170 38 c 2,0,-1
EndSplineSet
EndChar

StartChar: two
Encoding: 50 50 21
Width: 364
GlyphClass: 1
Flags: W
LayerCount: 2
Fore
SplineSet
281 367 m 0,0,1
 281 317 281 317 242 268 c 2,2,-1
 99 89 l 2,3,4
 93 83 93 83 90 72 c 0,5,6
 89 69 89 69 89 67 c 0,7,8
 89 59 89 59 97 54 c 0,9,10
 104 50 104 50 120 50 c 2,11,-1
 243 50 l 2,12,13
 279 50 279 50 280 34 c 0,14,15
 281 30 281 30 281 25 c 0,16,17
 281 12 281 12 276 8 c 0,18,19
 269 0 269 0 243 0 c 2,20,-1
 50 0 l 2,21,22
 21 0 21 0 13 14 c 0,23,24
 10 18 10 18 10 23 c 0,25,26
 10 34 10 34 21 50 c 2,27,-1
 48 90 l 1,28,-1
 182 265 l 1,29,-1
 204 292 l 2,30,31
 231 323 231 323 231 355 c 0,32,33
 231 379 231 379 208 397 c 0,34,35
 182 417 182 417 146 417 c 128,-1,36
 110 417 110 417 89 400 c 0,37,38
 73 386 73 386 70 370 c 0,39,40
 66 349 66 349 57 344 c 0,41,42
 53 341 53 341 46 341 c 0,43,44
 33 341 33 341 24 353 c 0,45,46
 19 361 19 361 19 377 c 0,47,48
 19 409 19 409 62 438 c 0,49,50
 103 467 103 467 150 467 c 0,51,52
 213 467 213 467 256 421 c 0,53,54
 281 395 281 395 281 367 c 0,0,1
EndSplineSet
EndChar

StartChar: three
Encoding: 51 51 22
Width: 364
GlyphClass: 1
Flags: W
LayerCount: 2
Fore
SplineSet
38 0 m 2,0,1
 9 0 9 0 9 21 c 0,2,3
 9 41 9 41 39 42 c 0,4,5
 86 45 86 45 144 80 c 0,6,7
 170 96 170 96 192 120 c 0,8,9
 212 141 212 141 222 166 c 0,10,11
 226 179 226 179 226 191 c 0,12,13
 226 194 226 194 226 196 c 0,14,15
 226 254 226 254 172 263 c 0,16,17
 155 266 155 266 133 268 c 0,18,19
 114 270 114 270 112 288 c 0,20,21
 112 291 112 291 112 294 c 0,22,23
 112 307 112 307 120 317 c 2,24,-1
 179 387 l 2,25,26
 187 395 187 395 187 402 c 0,27,28
 187 406 187 406 185 410 c 0,29,30
 181 417 181 417 171 417 c 2,31,-1
 50 417 l 2,32,33
 31 417 31 417 21.5 424 c 128,-1,34
 12 431 12 431 12 442 c 0,35,36
 12 458 12 458 36 465 c 0,37,38
 43 467 43 467 50 467 c 2,39,-1
 221 467 l 2,40,41
 254 467 254 467 264 448 c 0,42,43
 267 441 267 441 267 433 c 0,44,45
 267 420 267 420 255 405 c 2,46,-1
 182 310 l 1,47,48
 215 301 215 301 246 272 c 0,49,50
 281 239 281 239 281 200 c 0,51,52
 277 128 277 128 186 60 c 0,53,54
 131 21 131 21 78 4 c 0,55,56
 64 0 64 0 54 0 c 2,57,-1
 38 0 l 2,0,1
EndSplineSet
EndChar

StartChar: four
Encoding: 52 52 23
Width: 364
GlyphClass: 1
Flags: W
LayerCount: 2
Fore
SplineSet
200 170 m 2,0,-1
 200 314 l 2,1,2
 200 341 200 341 208 347 c 0,3,4
 213 352 213 352 225 352 c 128,-1,5
 237 352 237 352 242 346 c 0,6,7
 250 339 250 339 250 314 c 2,8,-1
 250 170 l 2,9,10
 250 151 250 151 253 148 c 128,-1,11
 256 145 256 145 275 145 c 0,12,13
 307 145 307 145 308 130 c 0,14,15
 309 125 309 125 309 120 c 0,16,17
 309 107 309 107 305 102 c 0,18,19
 299 95 299 95 275 95 c 0,20,21
 256 95 256 95 253 92 c 0,22,23
 250 88 250 88 250 70 c 2,24,-1
 250 38 l 2,25,26
 250 2 250 2 235 0 c 0,27,28
 231 0 231 0 227 0 c 0,29,30
 215 0 215 0 210 4 c 0,31,32
 200 13 200 13 200 38 c 2,33,-1
 200 70 l 2,34,35
 200 88 200 88 197 92 c 0,36,37
 194 95 194 95 175 95 c 2,38,-1
 50 95 l 2,39,40
 2 95 2 95 0 122 c 0,41,42
 0 131 0 131 0 140 c 0,43,44
 0 178 0 178 17 208 c 2,45,-1
 123 431 l 2,46,47
 129 445 129 445 142 454 c 0,48,49
 150 460 150 460 157 460 c 0,50,51
 162 460 162 460 166 458 c 0,52,53
 177 453 177 453 179 440 c 0,54,55
 179 439 179 439 179 437 c 0,56,57
 179 429 179 429 173 416 c 2,58,-1
 60 187 l 2,59,60
 52 170 52 170 52 161 c 0,61,62
 52 157 52 157 54 155 c 0,63,64
 58 145 58 145 81 145 c 2,65,-1
 174 145 l 2,66,67
 193 145 193 145 196 148 c 0,68,69
 200 151 200 151 200 170 c 2,0,-1
EndSplineSet
EndChar

StartChar: five
Encoding: 53 53 24
Width: 364
GlyphClass: 1
Flags: W
LayerCount: 2
Fore
SplineSet
27 430 m 2,0,1
 27 467 27 467 64 467 c 2,2,-1
 197 467 l 2,3,4
 232 467 232 467 234 452 c 0,5,6
 234 447 234 447 234 442 c 0,7,8
 234 429 234 429 230 424 c 0,9,10
 222 417 222 417 197 417 c 2,11,-1
 102 417 l 2,12,13
 83 417 83 417 80 414 c 128,-1,14
 77 411 77 411 77 393 c 2,15,-1
 77 344 l 2,16,17
 77 326 77 326 80 322 c 0,18,19
 83 319 83 319 102 319 c 2,20,-1
 148 319 l 2,21,22
 220 319 220 319 248 260 c 0,23,24
 262 230 262 230 262 196 c 0,25,26
 262 193 262 193 262 190 c 0,27,28
 262 108 262 108 151 39 c 0,29,30
 91 1 91 1 38 -2 c 0,31,32
 35 -2 35 -2 33 -2 c 0,33,34
 13 -2 13 -2 4 9 c 0,35,36
 0 14 0 14 0 19 c 0,37,38
 0 25 0 25 6 32 c 0,39,40
 16 44 16 44 31 44 c 0,41,42
 80 44 80 44 142 90 c 0,43,44
 191 125 191 125 208 166 c 0,45,46
 212 178 212 178 212 190 c 0,47,48
 212 193 212 193 212 195 c 0,49,50
 212 236 212 236 190 253 c 0,51,52
 170 269 170 269 119 269 c 2,53,-1
 64 269 l 2,54,55
 34 269 34 269 29 288 c 0,56,57
 27 295 27 295 27 307 c 2,58,-1
 27 430 l 2,0,1
EndSplineSet
EndChar

StartChar: six
Encoding: 54 54 25
Width: 364
GlyphClass: 1
Flags: W
LayerCount: 2
Fore
SplineSet
141 208 m 0,0,1
 75 208 75 208 56 162 c 0,2,3
 50 147 50 147 50 129 c 0,4,5
 50 93 50 93 74 72 c 0,6,7
 97 50 97 50 141 50 c 0,8,9
 206 50 206 50 225 96 c 0,10,11
 231 111 231 111 231 129 c 0,12,13
 231 165 231 165 208 186 c 0,14,15
 184 208 184 208 141 208 c 0,0,1
140 258 m 1,16,17
 241 258 241 258 272 182 c 0,18,19
 281 159 281 159 281 129 c 0,20,21
 281 69 281 69 245 35 c 0,22,23
 208 0 208 0 140 0 c 0,24,25
 73 0 73 0 36 35 c 0,26,27
 0 69 0 69 0 129 c 2,28,-1
 0 147 l 2,29,30
 0 203 0 203 14 243 c 0,31,32
 40 318 40 318 101 378 c 0,33,34
 173 448 173 448 203 448 c 0,35,36
 209 448 209 448 213 445 c 0,37,38
 214 443 214 443 216 440 c 0,39,40
 219 435 219 435 219 430 c 0,41,42
 219 421 219 421 208 411 c 0,43,44
 174 386 174 386 136 348 c 0,45,46
 94 306 94 306 88 274 c 0,47,48
 87 271 87 271 87 268 c 0,49,50
 87 257 87 257 96 254 c 0,51,52
 98 254 98 254 100 254 c 128,-1,53
 102 254 102 254 105 254 c 0,54,55
 110 255 110 255 116 256 c 2,56,-1
 141 258 l 1,57,-1
 140 258 l 1,16,17
EndSplineSet
EndChar

StartChar: seven
Encoding: 55 55 26
Width: 364
GlyphClass: 1
Flags: W
LayerCount: 2
Fore
SplineSet
224 393 m 0,0,1
 224 417 224 417 202 417 c 2,2,-1
 37 417 l 2,3,4
 2 417 2 417 0 432 c 0,5,6
 0 437 0 437 0 442 c 0,7,8
 0 455 0 455 4 460 c 0,9,10
 12 467 12 467 37 467 c 2,11,-1
 243 467 l 2,12,13
 281 467 281 467 286 448 c 0,14,15
 287 446 287 446 287 443 c 0,16,17
 287 434 287 434 281 417 c 2,18,-1
 161 86 l 1,19,-1
 161 86 l 1,20,-1
 161 86 l 1,21,-1
 150 44 l 2,22,23
 138 0 138 0 104 0 c 0,24,25
 80 0 80 0 80 24 c 0,26,27
 80 29 80 29 82 36 c 0,28,29
 84 47 84 47 96 83 c 0,30,31
 99 90 99 90 102 95 c 2,32,-1
 222 383 l 2,33,34
 224 387 224 387 224 393 c 0,0,1
EndSplineSet
EndChar

StartChar: eight
Encoding: 56 56 27
Width: 364
GlyphClass: 1
Flags: W
LayerCount: 2
Fore
SplineSet
140 216 m 256,0,1
 99 216 99 216 74.5 191.5 c 128,-1,2
 50 167 50 167 50 133 c 128,-1,3
 50 99 50 99 76 74 c 0,4,5
 103 50 103 50 140 50 c 0,6,7
 178 50 178 50 204 74 c 0,8,9
 231 99 231 99 231 133 c 0,10,11
 231 169 231 169 206 192 c 0,12,13
 181 216 181 216 140 216 c 256,0,1
139 420 m 0,14,15
 107 420 107 420 84 396 c 0,16,17
 62 375 62 375 62 342 c 0,18,19
 62 310 62 310 84.5 287.5 c 128,-1,20
 107 265 107 265 140 265 c 0,21,22
 174 265 174 265 196.5 287.5 c 128,-1,23
 219 310 219 310 219 342 c 128,-1,24
 219 374 219 374 195 396 c 0,25,26
 170 420 170 420 139 420 c 0,14,15
141 468 m 0,27,28
 201 468 201 468 236 435 c 128,-1,29
 271 402 271 402 271 349 c 0,30,31
 271 324 271 324 260 292 c 0,32,33
 257 282 257 282 244 257 c 0,34,35
 239 246 239 246 239 240 c 0,36,37
 239 232 239 232 245 224 c 2,38,-1
 259 207 l 2,39,40
 281 180 281 180 281 133 c 0,41,42
 281 78 281 78 240 39 c 0,43,44
 198 0 198 0 140 0 c 0,45,46
 83 0 83 0 40 39 c 0,47,48
 0 75 0 75 0 133 c 0,49,50
 3 181 3 181 20 208 c 2,51,-1
 27 218 l 1,52,-1
 37 235 l 2,53,54
 39 239 39 239 39 243 c 0,55,56
 39 254 39 254 30 266 c 0,57,58
 11 291 11 291 11 356 c 0,59,60
 13 408 13 408 46 438 c 0,61,62
 80 468 80 468 141 468 c 0,27,28
EndSplineSet
EndChar

StartChar: nine
Encoding: 57 57 28
Width: 364
GlyphClass: 1
Flags: W
LayerCount: 2
Fore
SplineSet
140 209 m 0,0,1
 0 209 0 209 0 338 c 0,2,3
 0 398 0 398 36 432 c 0,4,5
 73 467 73 467 140 467 c 0,6,7
 208 467 208 467 245 432 c 0,8,9
 281 398 281 398 281 338 c 0,10,11
 281 197 281 197 210 112 c 0,12,13
 174 68 174 68 122 41 c 2,14,-1
 99 29 l 2,15,16
 98 29 98 29 83 20 c 0,17,18
 57 3 57 3 39 3 c 0,19,20
 35 3 35 3 32 4 c 0,21,22
 28 5 28 5 26 10 c 128,-1,23
 24 15 24 15 24 19 c 0,24,25
 24 28 24 28 30 38 c 0,26,27
 35 45 35 45 46 50 c 0,28,29
 157 108 157 108 191 173 c 0,30,31
 200 190 200 190 202 198 c 0,32,33
 202 199 202 199 202 200 c 0,34,35
 202 206 202 206 197 208 c 128,-1,36
 192 210 192 210 181 210 c 0,37,38
 179 210 179 210 177 210 c 0,39,40
 163 209 163 209 140 209 c 0,0,1
140 417 m 0,41,42
 75 417 75 417 56 370 c 0,43,44
 50 355 50 355 50 337 c 0,45,46
 50 300 50 300 76 278 c 128,-1,47
 102 256 102 256 140 256 c 0,48,49
 179 256 179 256 204 278 c 0,50,51
 231 300 231 300 231 337 c 128,-1,52
 231 374 231 374 208 396 c 0,53,54
 184 417 184 417 140 417 c 0,41,42
EndSplineSet
EndChar

StartChar: colon
Encoding: 58 58 29
Width: 364
GlyphClass: 1
Flags: W
LayerCount: 2
Fore
SplineSet
141 112 m 256,0,1
 164 112 164 112 180.5 95.5 c 128,-1,2
 197 79 197 79 197 56 c 128,-1,3
 197 33 197 33 180.5 16.5 c 128,-1,4
 164 0 164 0 141 0 c 128,-1,5
 118 0 118 0 101.5 16.5 c 128,-1,6
 85 33 85 33 85 56 c 128,-1,7
 85 79 85 79 101.5 95.5 c 128,-1,8
 118 112 118 112 141 112 c 256,0,1
141 309 m 256,9,10
 164 309 164 309 180.5 292.5 c 128,-1,11
 197 276 197 276 197 253 c 0,12,13
 197 231 197 231 180 213 c 0,14,15
 166 197 166 197 141 197 c 0,16,17
 105 197 105 197 90 231 c 0,18,19
 85 241 85 241 85 253 c 0,20,21
 85 276 85 276 101.5 292.5 c 128,-1,22
 118 309 118 309 141 309 c 256,9,10
EndSplineSet
EndChar

StartChar: semicolon
Encoding: 59 59 30
Width: 364
GlyphClass: 1
Flags: W
LayerCount: 2
Fore
SplineSet
143 3 m 1,0,1
 120 3 120 3 102 22 c 0,2,3
 82 41 82 41 82 63 c 128,-1,4
 82 85 82 85 100 100 c 0,5,6
 115 112 115 112 141 112 c 0,7,8
 164 112 164 112 180.5 95.5 c 128,-1,9
 197 79 197 79 197 56 c 0,10,11
 197 16 197 16 160 -44 c 0,12,13
 124 -105 124 -105 102 -105 c 0,14,15
 92 -105 92 -105 88 -94 c 0,16,17
 88 -91 88 -91 88 -88 c 0,18,19
 88 -77 88 -77 99 -67 c 0,20,21
 124 -45 124 -45 138 -16 c 0,22,23
 142 -7 142 -7 143 3 c 1,0,1
141 309 m 256,24,25
 164 309 164 309 180.5 292.5 c 128,-1,26
 197 276 197 276 197 253 c 0,27,28
 197 231 197 231 180 213 c 0,29,30
 166 197 166 197 141 197 c 0,31,32
 105 197 105 197 90 231 c 0,33,34
 85 241 85 241 85 253 c 0,35,36
 85 276 85 276 101.5 292.5 c 128,-1,37
 118 309 118 309 141 309 c 256,24,25
EndSplineSet
EndChar

StartChar: less
Encoding: 60 60 31
Width: 364
GlyphClass: 1
Flags: W
LayerCount: 2
Fore
SplineSet
64 238 m 256,0,1
 64 224 64 224 82 208 c 2,2,-1
 254 62 l 2,3,4
 267 49 267 49 267 34 c 0,5,6
 267 23 267 23 256 21 c 0,7,8
 252 20 252 20 249 20 c 0,9,10
 237 20 237 20 227 30 c 2,11,-1
 22 204 l 2,12,13
 0 222 0 222 0 236 c 128,-1,14
 0 250 0 250 21 269 c 2,15,-1
 227 444 l 2,16,17
 237 454 237 454 249 454 c 0,18,19
 252 454 252 454 256 453 c 0,20,21
 267 451 267 451 267 440 c 0,22,23
 267 426 267 426 254 413 c 2,24,-1
 81 265 l 2,25,26
 64 252 64 252 64 238 c 256,0,1
EndSplineSet
EndChar

StartChar: equal
Encoding: 61 61 32
Width: 364
GlyphClass: 1
Flags: W
LayerCount: 2
Fore
SplineSet
44 50 m 2,0,1
 19 50 19 50 13 58 c 0,2,3
 8 63 8 63 8 75 c 128,-1,4
 8 87 8 87 13 92 c 0,5,6
 19 100 19 100 44 100 c 2,7,-1
 237 100 l 2,8,9
 271 100 271 100 272 84 c 0,10,11
 273 80 273 80 273 75 c 0,12,13
 273 62 273 62 268 58 c 0,14,15
 261 50 261 50 237 50 c 2,16,-1
 44 50 l 2,0,1
44 225 m 2,17,18
 19 225 19 225 13 232 c 0,19,20
 8 238 8 238 8 250 c 128,-1,21
 8 262 8 262 13 268 c 0,22,23
 19 275 19 275 44 275 c 2,24,-1
 237 275 l 2,25,26
 271 275 271 275 272 260 c 0,27,28
 273 255 273 255 273 250 c 0,29,30
 273 237 273 237 268 232 c 0,31,32
 261 225 261 225 237 225 c 2,33,-1
 44 225 l 2,17,18
EndSplineSet
EndChar

StartChar: greater
Encoding: 62 62 33
Width: 364
GlyphClass: 1
Flags: W
LayerCount: 2
Fore
SplineSet
271 236 m 0,0,1
 271 221 271 221 250 204 c 2,2,-1
 45 30 l 2,3,4
 32 20 32 20 21 20 c 0,5,6
 19 20 19 20 16 21 c 0,7,8
 5 23 5 23 5 34 c 0,9,10
 5 52 5 52 18 62 c 2,11,-1
 190 208 l 2,12,13
 208 224 208 224 208 238 c 0,14,15
 208 250 208 250 191 265 c 2,16,-1
 18 413 l 2,17,18
 11 419 11 419 6 430 c 0,19,20
 4 434 4 434 4 438 c 0,21,22
 4 444 4 444 8 449 c 0,23,24
 13 454 13 454 21 454 c 0,25,26
 31 454 31 454 45 444 c 2,27,-1
 250 269 l 2,28,29
 271 252 271 252 271 236 c 0,0,1
EndSplineSet
EndChar

StartChar: question
Encoding: 63 63 34
Width: 364
GlyphClass: 1
Flags: W
LayerCount: 2
Fore
SplineSet
166 465 m 0,0,1
 193 465 193 465 236 439 c 1,2,-1
 245 432 l 2,3,4
 267 415 267 415 273 398 c 2,5,-1
 277 387 l 2,6,7
 280 375 280 375 280 366 c 2,8,-1
 280 354 l 2,9,10
 280 352 280 352 274 322 c 1,11,-1
 270 313 l 2,12,13
 267 308 267 308 266 304 c 2,14,-1
 256 289 l 2,15,16
 249 282 249 282 245 276 c 2,17,-1
 234 266 l 1,18,-1
 218 255 l 2,19,20
 215 253 215 253 214 251 c 0,21,22
 200 244 200 244 192 232 c 0,23,24
 182 222 182 222 176 210 c 2,25,-1
 170 200 l 2,26,27
 165 192 165 192 156 166 c 0,28,29
 155 163 155 163 155 160 c 0,30,31
 155 151 155 151 148 142 c 0,32,33
 146 140 146 140 145 138 c 0,34,35
 139 135 139 135 131 135 c 0,36,37
 124 135 124 135 118 146 c 0,38,39
 112 155 112 155 112 164 c 2,40,-1
 112 177 l 1,41,42
 118 215 118 215 142 248 c 0,43,44
 145 253 145 253 150 257 c 0,45,46
 152 263 152 263 158 266 c 0,47,48
 164 272 164 272 169 274 c 2,49,-1
 181 282 l 1,50,-1
 199 298 l 2,51,52
 215 314 215 314 221 343 c 0,53,54
 222 348 222 348 222 353 c 0,55,56
 222 392 222 392 180 408 c 0,57,58
 161 415 161 415 132 415 c 0,59,60
 120 415 120 415 110 413 c 0,61,62
 96 413 96 413 71 394 c 0,63,64
 62 387 62 387 58 377 c 2,65,-1
 54 370 l 2,66,67
 51 367 51 367 50 364 c 0,68,69
 44 356 44 356 36 350 c 0,70,71
 33 348 33 348 31 346 c 0,72,73
 27 344 27 344 20 344 c 128,-1,74
 13 344 13 344 7 352 c 0,75,76
 0 360 0 360 0 366 c 2,77,-1
 0 386 l 2,78,79
 0 404 0 404 30 430 c 0,80,81
 51 449 51 449 96 462 c 0,82,83
 103 464 103 464 110 464 c 0,84,85
 120 467 120 467 139 467 c 0,86,87
 154 467 154 467 166 465 c 0,0,1
137 66 m 0,88,89
 159 66 159 66 168 46 c 0,90,91
 170 40 170 40 170 33 c 0,92,93
 170 11 170 11 150 2 c 0,94,95
 144 0 144 0 137 0 c 0,96,97
 116 0 116 0 108 20 c 0,98,99
 105 26 105 26 105 33 c 0,100,101
 105 55 105 55 125 64 c 0,102,103
 131 66 131 66 137 66 c 0,88,89
EndSplineSet
EndChar

StartChar: at
Encoding: 64 64 35
Width: 364
GlyphClass: 1
Flags: W
LayerCount: 2
Fore
SplineSet
157 -102 m 0,0,1
 150 -104 150 -104 127 -104 c 0,2,3
 107 -104 107 -104 93 -99 c 0,4,5
 59 -86 59 -86 34 -54 c 0,6,7
 11 -23 11 -23 1 15 c 0,8,9
 -12 66 -12 66 -12 116 c 2,10,-1
 -12 118 l 2,11,12
 -12 185 -12 185 9 229 c 0,13,14
 32 276 32 276 77 301 c 0,15,16
 124 327 124 327 168 329 c 0,17,18
 174 329 174 329 180 329 c 0,19,20
 250 329 250 329 290 295 c 0,21,22
 320 268 320 268 320 221 c 2,23,-1
 320 66 l 2,24,25
 320 58 320 58 327 44 c 0,26,27
 333 32 333 32 333 22 c 128,-1,28
 333 12 333 12 318 6 c 0,29,30
 310 4 310 4 304 4 c 128,-1,31
 298 4 298 4 292 6 c 0,32,33
 270 16 270 16 262 16 c 0,34,35
 255 16 255 16 252 14 c 0,36,37
 250 12 250 12 247 11 c 128,-1,38
 244 10 244 10 240 8 c 0,39,40
 238 6 238 6 218 2 c 0,41,42
 206 0 206 0 197 0 c 2,43,-1
 191 0 l 2,44,45
 174 0 174 0 163 2 c 0,46,47
 134 7 134 7 108 38 c 0,48,49
 94 55 94 55 94 91 c 0,50,51
 94 165 94 165 157 180 c 0,52,53
 186 186 186 186 197 186 c 2,54,-1
 239 186 l 2,55,56
 265 186 265 186 265 223 c 128,-1,57
 265 260 265 260 223 272 c 0,58,59
 205 278 205 278 181 278 c 0,60,61
 172 278 172 278 163 277 c 0,62,63
 128 274 128 274 103 258 c 0,64,65
 73 238 73 238 61 216 c 0,66,67
 40 178 40 178 40 130 c 0,68,69
 40 128 40 128 40 126 c 0,70,71
 41 74 41 74 51 36 c 0,72,73
 57 14 57 14 80 -19 c 0,74,75
 104 -51 104 -51 133 -51 c 0,76,77
 173 -51 173 -51 186 -60 c 0,78,79
 192 -64 192 -64 192 -70 c 0,80,81
 192 -80 192 -80 185 -86 c 0,82,83
 173 -97 173 -97 157 -102 c 0,0,1
205 140 m 0,84,85
 182 138 182 138 164 128 c 0,86,87
 144 118 144 118 144 93 c 128,-1,88
 144 68 144 68 162 58 c 0,89,90
 178 48 178 48 199 48 c 0,91,92
 200 48 200 48 202 48 c 0,93,94
 247 49 247 49 261 77 c 0,95,96
 265 85 265 85 265 93 c 0,97,98
 265 118 265 118 248 128 c 0,99,100
 230 140 230 140 212 140 c 0,101,102
 209 140 209 140 205 140 c 0,84,85
EndSplineSet
EndChar

StartChar: A
Encoding: 65 65 36
Width: 364
GlyphClass: 1
Flags: W
LayerCount: 2
Fore
SplineSet
16 1 m 0,0,1
 0 1 0 1 0 29 c 0,2,3
 0 33 0 33 0 36 c 0,4,5
 1 45 1 45 2 50 c 2,6,-1
 102 413 l 2,7,8
 111 450 111 450 142 463 c 0,9,10
 151 467 151 467 162 467 c 0,11,12
 209 467 209 467 226 407 c 2,13,-1
 314 44 l 2,14,15
 317 35 317 35 317 27 c 0,16,17
 317 1 317 1 291 1 c 0,18,19
 273 1 273 1 270 9 c 0,20,21
 268 14 268 14 266 22 c 2,22,-1
 246 94 l 2,23,24
 236 125 236 125 220 132 c 0,25,26
 213 134 213 134 205 134 c 2,27,-1
 103 134 l 2,28,29
 73 134 73 134 66 103 c 2,30,-1
 52 40 l 2,31,32
 46 12 46 12 30 3 c 0,33,34
 25 1 25 1 20 1 c 0,35,36
 18 1 18 1 16 1 c 0,0,1
98 217 m 2,37,38
 96 208 96 208 96 202 c 0,39,40
 96 190 96 190 108 188 c 0,41,42
 114 187 114 187 124 187 c 2,43,-1
 176 187 l 2,44,45
 191 187 191 187 204 198 c 0,46,47
 215 208 215 208 215 218 c 0,48,49
 215 220 215 220 214 223 c 2,50,-1
 177 388 l 2,51,52
 174 398 174 398 161 407 c 0,53,54
 152 413 152 413 147 413 c 0,55,56
 143 413 143 413 140 410 c 2,57,-1
 98 217 l 2,37,38
EndSplineSet
EndChar

StartChar: B
Encoding: 66 66 37
Width: 364
GlyphClass: 1
Flags: W
LayerCount: 2
Fore
SplineSet
283 353 m 0,0,1
 283 289 283 289 247 248 c 1,2,3
 289 209 289 209 296 162 c 0,4,5
 298 145 298 145 298 125 c 0,6,7
 298 98 298 98 280 62 c 0,8,9
 263 30 263 30 230 12 c 0,10,11
 210 0 210 0 184 0 c 2,12,-1
 38 0 l 2,13,14
 0 0 0 0 0 38 c 2,15,-1
 0 430 l 2,16,17
 0 467 0 467 38 467 c 2,18,-1
 168 467 l 2,19,20
 207 467 207 467 245 429 c 128,-1,21
 283 391 283 391 283 353 c 0,0,1
242 131 m 0,22,23
 242 192 242 192 210 208 c 0,24,25
 193 216 193 216 172 216 c 2,26,-1
 75 216 l 2,27,28
 57 216 57 216 54 213 c 0,29,30
 50 210 50 210 50 191 c 2,31,-1
 50 75 l 2,32,33
 50 56 50 56 54 53 c 0,34,35
 57 50 57 50 75 50 c 2,36,-1
 172 50 l 2,37,38
 203 50 203 50 224 78 c 0,39,40
 242 102 242 102 242 131 c 0,22,23
228 342 m 0,41,42
 228 374 228 374 200 400 c 0,43,44
 181 417 181 417 155 417 c 2,45,-1
 75 417 l 2,46,47
 56 417 56 417 53 414 c 128,-1,48
 50 411 50 411 50 392 c 2,49,-1
 50 291 l 2,50,51
 50 272 50 272 53 269 c 128,-1,52
 56 266 56 266 75 266 c 2,53,-1
 172 266 l 2,54,55
 197 266 197 266 214 294 c 0,56,57
 228 315 228 315 228 342 c 0,41,42
EndSplineSet
EndChar

StartChar: C
Encoding: 67 67 38
Width: 364
GlyphClass: 1
Flags: W
LayerCount: 2
Fore
SplineSet
261 109 m 0,0,1
 283 109 283 109 283 84 c 0,2,3
 283 78 283 78 282 70 c 0,4,5
 276 37 276 37 250 18 c 0,6,7
 224 0 224 0 184 0 c 2,8,-1
 91 0 l 2,9,10
 54 0 54 0 18 44 c 0,11,12
 0 67 0 67 0 92 c 2,13,-1
 0 370 l 2,14,15
 0 416 0 416 44 448 c 0,16,17
 70 467 70 467 95 467 c 2,18,-1
 184 467 l 2,19,20
 211 467 211 467 242 452 c 0,21,22
 258 443 258 443 274 427 c 0,23,24
 285 414 285 414 292 396 c 0,25,26
 295 387 295 387 295 379 c 0,27,28
 295 349 295 349 280 344 c 0,29,30
 276 343 276 343 270 343 c 0,31,32
 256 343 256 343 246 358 c 0,33,34
 242 365 242 365 238 372 c 0,35,36
 236 378 236 378 222 396 c 0,37,38
 207 417 207 417 184 417 c 2,39,-1
 100 417 l 2,40,41
 81 417 81 417 65 398 c 0,42,43
 50 379 50 379 50 358 c 2,44,-1
 50 109 l 2,45,46
 50 89 50 89 66 70 c 0,47,48
 85 50 85 50 104 50 c 2,49,-1
 184 50 l 2,50,51
 204 50 204 50 214 58 c 0,52,53
 226 69 226 69 230 80 c 0,54,55
 242 109 242 109 259 109 c 0,56,57
 260 109 260 109 261 109 c 0,0,1
EndSplineSet
EndChar

StartChar: D
Encoding: 68 68 39
Width: 364
GlyphClass: 1
Flags: W
LayerCount: 2
Fore
SplineSet
0 50 m 2,0,-1
 0 417 l 2,1,2
 0 456 0 456 31 464 c 0,3,4
 40 467 40 467 50 467 c 2,5,-1
 103 467 l 2,6,7
 193 467 193 467 242.5 431 c 128,-1,8
 292 395 292 395 308 334 c 0,9,10
 320 291 320 291 320 242 c 0,11,12
 320 72 320 72 204 20 c 0,13,14
 161 0 161 0 100 0 c 2,15,-1
 50 0 l 2,16,17
 32 0 32 0 16 16 c 128,-1,18
 0 32 0 32 0 50 c 2,0,-1
75 50 m 0,19,20
 174 50 174 50 218 94 c 0,21,22
 263 138 263 138 265 239 c 0,23,24
 265 317 265 317 240 356 c 0,25,26
 222 384 222 384 195 397 c 0,27,28
 152 417 152 417 75 417 c 0,29,30
 59 417 59 417 52 402 c 0,31,32
 50 397 50 397 50 392 c 2,33,-1
 50 75 l 2,34,35
 50 59 50 59 66 52 c 0,36,37
 70 50 70 50 75 50 c 0,19,20
EndSplineSet
EndChar

StartChar: E
Encoding: 69 69 40
Width: 364
GlyphClass: 1
Flags: W
LayerCount: 2
Fore
SplineSet
50 75 m 2,0,1
 50 57 50 57 53 54 c 0,2,3
 56 50 56 50 75 50 c 2,4,-1
 243 50 l 2,5,6
 279 50 279 50 280 34 c 0,7,8
 281 30 281 30 281 25 c 0,9,10
 281 12 281 12 276 8 c 0,11,12
 269 0 269 0 243 0 c 2,13,-1
 38 0 l 2,14,15
 0 0 0 0 0 38 c 2,16,-1
 0 430 l 2,17,18
 0 467 0 467 38 467 c 2,19,-1
 243 467 l 2,20,21
 279 467 279 467 280 452 c 0,22,23
 281 447 281 447 281 442 c 0,24,25
 281 429 281 429 276 424 c 0,26,27
 269 417 269 417 243 417 c 2,28,-1
 75 417 l 2,29,30
 56 417 56 417 53 414 c 128,-1,31
 50 411 50 411 50 392 c 2,32,-1
 50 291 l 2,33,34
 50 273 50 273 53 270 c 0,35,36
 56 266 56 266 75 266 c 2,37,-1
 135 266 l 2,38,39
 170 266 170 266 172 250 c 0,40,41
 172 246 172 246 172 241 c 0,42,43
 172 228 172 228 168 224 c 0,44,45
 160 216 160 216 135 216 c 2,46,-1
 75 216 l 2,47,48
 57 216 57 216 53.5 212.5 c 128,-1,49
 50 209 50 209 50 191 c 2,50,-1
 50 75 l 2,0,1
EndSplineSet
EndChar

StartChar: F
Encoding: 70 70 41
Width: 364
GlyphClass: 1
Flags: W
LayerCount: 2
Fore
SplineSet
50 38 m 2,0,1
 50 2 50 2 34 0 c 0,2,3
 30 0 30 0 25 0 c 0,4,5
 12 0 12 0 8 4 c 0,6,7
 0 12 0 12 0 38 c 2,8,-1
 0 430 l 2,9,10
 0 467 0 467 38 467 c 2,11,-1
 243 467 l 2,12,13
 279 467 279 467 280 452 c 0,14,15
 281 447 281 447 281 442 c 0,16,17
 281 429 281 429 276 424 c 0,18,19
 269 417 269 417 243 417 c 2,20,-1
 75 417 l 2,21,22
 56 417 56 417 53 414 c 128,-1,23
 50 411 50 411 50 392 c 2,24,-1
 50 291 l 2,25,26
 50 272 50 272 53 269 c 128,-1,27
 56 266 56 266 75 266 c 2,28,-1
 135 266 l 2,29,30
 170 266 170 266 172 250 c 0,31,32
 172 246 172 246 172 241 c 0,33,34
 172 228 172 228 168 224 c 0,35,36
 160 216 160 216 135 216 c 2,37,-1
 75 216 l 2,38,39
 56 216 56 216 53 213 c 128,-1,40
 50 210 50 210 50 191 c 2,41,-1
 50 38 l 2,0,1
EndSplineSet
EndChar

StartChar: G
Encoding: 71 71 42
Width: 364
GlyphClass: 1
Flags: W
LayerCount: 2
Fore
SplineSet
172 182 m 0,0,1
 172 203 172 203 203 203 c 2,2,-1
 248 203 l 2,3,4
 270 203 270 203 277 192 c 0,5,6
 281 185 281 185 281 172 c 2,7,-1
 281 38 l 2,8,9
 281 12 281 12 264 2 c 0,10,11
 260 0 260 0 256 0 c 0,12,13
 247 0 247 0 238 7 c 0,14,15
 231 13 231 13 231 25 c 1,16,17
 218 9 218 9 188 2 c 0,18,19
 179 0 179 0 172 0 c 2,20,-1
 121 0 l 2,21,22
 97 0 97 0 63 18 c 0,23,24
 32 36 32 36 13 64 c 0,25,26
 0 84 0 84 0 102 c 2,27,-1
 0 361 l 2,28,29
 0 401 0 401 32 435 c 0,30,31
 51 457 51 457 77 464 c 0,32,33
 85 467 85 467 92 467 c 2,34,-1
 172 467 l 2,35,36
 243 467 243 467 272 416 c 0,37,38
 281 400 281 400 281 380 c 0,39,40
 281 352 281 352 272 344 c 0,41,42
 268 341 268 341 262 340 c 0,43,44
 261 340 261 340 260 340 c 0,45,46
 249 340 249 340 240 348 c 0,47,48
 227 358 227 358 219 388 c 0,49,50
 214 404 214 404 197 412 c 0,51,52
 188 417 188 417 172 417 c 2,53,-1
 113 417 l 2,54,55
 50 417 50 417 50 342 c 2,56,-1
 50 112 l 2,57,58
 50 91 50 91 72 70 c 0,59,60
 94 50 94 50 117 50 c 2,61,-1
 157 50 l 2,62,63
 185 50 185 50 208 68 c 0,64,65
 231 88 231 88 231 114 c 2,66,-1
 231 136 l 2,67,68
 231 150 231 150 218 156 c 0,69,70
 213 158 213 158 206 158 c 0,71,72
 187 160 187 160 182 164 c 0,73,74
 172 169 172 169 172 182 c 0,0,1
EndSplineSet
EndChar

StartChar: H
Encoding: 72 72 43
Width: 364
GlyphClass: 1
Flags: W
LayerCount: 2
Fore
SplineSet
217 266 m 2,0,1
 232 266 232 266 240 284 c 0,2,3
 242 288 242 288 242 291 c 2,4,-1
 242 430 l 2,5,6
 242 465 242 465 258 466 c 0,7,8
 263 467 263 467 267 467 c 0,9,10
 280 467 280 467 284 462 c 0,11,12
 292 455 292 455 292 430 c 2,13,-1
 292 38 l 2,14,15
 292 2 292 2 276 0 c 0,16,17
 272 0 272 0 267 0 c 0,18,19
 255 0 255 0 250 4 c 0,20,21
 242 13 242 13 242 38 c 2,22,-1
 242 191 l 2,23,24
 242 206 242 206 224 214 c 0,25,26
 220 216 220 216 217 216 c 2,27,-1
 75 216 l 2,28,29
 67 216 67 216 58 207 c 0,30,31
 50 199 50 199 50 191 c 2,32,-1
 50 38 l 2,33,34
 50 2 50 2 34 0 c 0,35,36
 30 0 30 0 25 0 c 0,37,38
 12 0 12 0 8 4 c 0,39,40
 0 12 0 12 0 38 c 2,41,-1
 0 430 l 2,42,43
 0 465 0 465 16 466 c 0,44,45
 20 467 20 467 25 467 c 0,46,47
 38 467 38 467 42 462 c 0,48,49
 50 455 50 455 50 430 c 2,50,-1
 50 291 l 2,51,52
 50 272 50 272 53 269 c 128,-1,53
 56 266 56 266 75 266 c 2,54,-1
 217 266 l 2,0,1
EndSplineSet
EndChar

StartChar: I
Encoding: 73 73 44
Width: 364
GlyphClass: 1
Flags: W
LayerCount: 2
Fore
SplineSet
50 442 m 0,0,1
 50 455 50 455 54 460 c 0,2,3
 62 467 62 467 87 467 c 2,4,-1
 193 467 l 2,5,6
 228 467 228 467 230 452 c 0,7,8
 230 447 230 447 230 442 c 0,9,10
 230 429 230 429 226 424 c 0,11,12
 218 417 218 417 193 417 c 0,13,14
 174 417 174 417 167 402 c 0,15,16
 165 397 165 397 165 392 c 2,17,-1
 165 75 l 2,18,19
 165 59 165 59 182 52 c 0,20,21
 187 50 187 50 193 50 c 0,22,23
 228 50 228 50 230 34 c 0,24,25
 230 30 230 30 230 25 c 0,26,27
 230 12 230 12 226 8 c 0,28,29
 218 0 218 0 193 0 c 2,30,-1
 87 0 l 2,31,32
 52 0 52 0 50 16 c 0,33,34
 50 20 50 20 50 25 c 0,35,36
 50 38 50 38 54 42 c 0,37,38
 62 50 62 50 87 50 c 0,39,40
 106 50 106 50 113 66 c 0,41,42
 115 70 115 70 115 75 c 2,43,-1
 115 392 l 2,44,45
 115 408 115 408 98 415 c 0,46,47
 93 417 93 417 87 417 c 0,48,49
 52 417 52 417 50 432 c 0,50,51
 50 437 50 437 50 442 c 0,0,1
EndSplineSet
EndChar

StartChar: J
Encoding: 74 74 45
Width: 364
GlyphClass: 1
Flags: W
LayerCount: 2
Fore
SplineSet
102 452 m 0,0,1
 102 467 102 467 139 467 c 2,2,-1
 243 467 l 2,3,4
 281 467 281 467 281 430 c 2,5,-1
 281 109 l 2,6,7
 281 65 281 65 248 32 c 0,8,9
 216 0 216 0 172 0 c 2,10,-1
 133 0 l 2,11,12
 85 0 85 0 43 25 c 0,13,14
 0 51 0 51 0 88 c 0,15,16
 0 112 0 112 14 120 c 0,17,18
 18 123 18 123 24 123 c 0,19,20
 42 123 42 123 49 101 c 0,21,22
 56 81 56 81 60 75 c 0,23,24
 80 50 80 50 108 50 c 2,25,-1
 161 50 l 2,26,27
 192 50 192 50 213 73 c 0,28,29
 231 93 231 93 231 122 c 2,30,-1
 231 392 l 2,31,32
 231 408 231 408 216 415 c 0,33,34
 211 417 211 417 206 417 c 2,35,-1
 139 417 l 2,36,37
 104 417 104 417 102 432 c 0,38,39
 102 437 102 437 102 442 c 128,-1,40
 102 447 102 447 102 452 c 0,0,1
EndSplineSet
EndChar

StartChar: K
Encoding: 75 75 46
Width: 364
GlyphClass: 1
Flags: W
LayerCount: 2
Fore
SplineSet
279 18 m 0,0,1
 279 0 279 0 260 0 c 0,2,3
 233 0 233 0 216 28 c 2,4,-1
 139 148 l 2,5,6
 128 168 128 168 113 168 c 0,7,8
 111 168 111 168 108 168 c 0,9,10
 96 165 96 165 79 150 c 0,11,12
 50 127 50 127 50 75 c 2,13,-1
 50 38 l 2,14,15
 50 2 50 2 34 0 c 0,16,17
 30 0 30 0 25 0 c 0,18,19
 12 0 12 0 8 4 c 0,20,21
 0 12 0 12 0 38 c 2,22,-1
 0 430 l 2,23,24
 0 465 0 465 16 466 c 0,25,26
 20 467 20 467 25 467 c 0,27,28
 38 467 38 467 42 462 c 0,29,30
 50 455 50 455 50 430 c 2,31,-1
 50 232 l 2,32,33
 50 226 50 226 53 222 c 128,-1,34
 56 218 56 218 60 218 c 0,35,36
 71 218 71 218 92 246 c 2,37,-1
 231 442 l 2,38,39
 249 467 249 467 262 467 c 0,40,41
 288 467 288 467 288 447 c 0,42,43
 288 434 288 434 277 417 c 2,44,-1
 173 273 l 2,45,46
 153 246 153 246 153 228 c 0,47,48
 153 220 153 220 158 212 c 128,-1,49
 163 204 163 204 170 194 c 2,50,-1
 262 58 l 2,51,52
 279 35 279 35 279 18 c 0,0,1
EndSplineSet
EndChar

StartChar: L
Encoding: 76 76 47
Width: 364
GlyphClass: 1
Flags: W
LayerCount: 2
Fore
SplineSet
34 467 m 0,0,1
 50 467 50 467 50 430 c 2,2,-1
 50 75 l 2,3,4
 50 56 50 56 53 53 c 128,-1,5
 56 50 56 50 75 50 c 2,6,-1
 243 50 l 2,7,8
 279 50 279 50 280 34 c 0,9,10
 281 30 281 30 281 25 c 0,11,12
 281 12 281 12 276 8 c 0,13,14
 269 0 269 0 243 0 c 2,15,-1
 50 0 l 2,16,17
 9 0 9 0 2 26 c 0,18,19
 0 36 0 36 0 50 c 2,20,-1
 0 430 l 2,21,22
 0 465 0 465 16 466 c 0,23,24
 20 467 20 467 25 467 c 128,-1,25
 30 467 30 467 34 467 c 0,0,1
EndSplineSet
EndChar

StartChar: M
Encoding: 77 77 48
Width: 364
GlyphClass: 1
Flags: W
LayerCount: 2
Fore
SplineSet
156 151 m 0,0,1
 141 151 141 151 133 168 c 2,2,-1
 80 285 l 2,3,4
 72 302 72 302 64 302 c 0,5,6
 62 302 62 302 60 302 c 0,7,8
 50 298 50 298 50 281 c 2,9,-1
 50 38 l 2,10,11
 50 2 50 2 34 0 c 0,12,13
 30 0 30 0 25 0 c 0,14,15
 12 0 12 0 8 4 c 0,16,17
 0 12 0 12 0 38 c 2,18,-1
 0 430 l 2,19,20
 0 465 0 465 16 466 c 0,21,22
 20 467 20 467 25 467 c 0,23,24
 42 467 42 467 56 442 c 2,25,-1
 155 231 l 1,26,-1
 248 429 l 2,27,28
 261 456 261 456 274 464 c 0,29,30
 279 467 279 467 286 467 c 0,31,32
 299 467 299 467 304 462 c 0,33,34
 311 455 311 455 311 430 c 2,35,-1
 311 38 l 2,36,37
 311 2 311 2 296 0 c 0,38,39
 291 0 291 0 286 0 c 0,40,41
 273 0 273 0 268 4 c 0,42,43
 261 12 261 12 261 38 c 2,44,-1
 261 281 l 2,45,46
 261 298 261 298 250 302 c 0,47,48
 249 302 249 302 247 302 c 0,49,50
 239 302 239 302 231 285 c 2,51,-1
 178 168 l 2,52,53
 170 151 170 151 156 151 c 0,0,1
EndSplineSet
EndChar

StartChar: N
Encoding: 78 78 49
Width: 364
GlyphClass: 1
Flags: W
LayerCount: 2
Fore
SplineSet
69 435 m 2,0,-1
 234 144 l 2,1,2
 245 128 245 128 254 128 c 1,3,-1
 254 421 l 2,4,5
 254 450 254 450 268 454 c 0,6,7
 272 455 272 455 276 455 c 0,8,9
 287 455 287 455 291 450 c 0,10,11
 298 442 298 442 298 421 c 2,12,-1
 298 37 l 2,13,14
 298 2 298 2 282 0 c 0,15,16
 278 0 278 0 273 0 c 0,17,18
 249 0 249 0 236 20 c 0,19,20
 232 26 232 26 229 32 c 2,21,-1
 64 327 l 1,22,-1
 56 339 l 2,23,24
 52 343 52 343 44 343 c 1,25,-1
 44 46 l 2,26,27
 44 15 44 15 30 14 c 0,28,29
 26 13 26 13 22 13 c 0,30,31
 11 13 11 13 7 17 c 0,32,33
 0 24 0 24 0 46 c 2,34,-1
 0 430 l 2,35,36
 0 465 0 465 16 466 c 0,37,38
 20 467 20 467 25 467 c 0,39,40
 43 467 43 467 58 452 c 0,41,42
 63 447 63 447 66 441.5 c 128,-1,43
 69 436 69 436 69 435 c 2,0,-1
EndSplineSet
EndChar

StartChar: O
Encoding: 79 79 50
Width: 364
GlyphClass: 1
Flags: W
LayerCount: 2
Fore
SplineSet
281 319 m 2,0,-1
 281 148 l 2,1,2
 281 38 281 38 200 10 c 0,3,4
 177 1 177 1 146 1 c 0,5,6
 143 1 143 1 140 1 c 0,7,8
 0 1 0 1 0 148 c 2,9,-1
 0 319 l 2,10,11
 0 466 0 466 140 466 c 0,12,13
 144 466 144 466 147 466 c 0,14,15
 244 466 244 466 272 384 c 0,16,17
 281 356 281 356 281 319 c 2,0,-1
231 145 m 2,18,-1
 231 322 l 2,19,20
 231 370 231 370 207.5 393.5 c 128,-1,21
 184 417 184 417 140 417 c 0,22,23
 50 415 50 415 50 322 c 2,24,-1
 50 145 l 2,25,26
 50 98 50 98 73 74 c 128,-1,27
 96 50 96 50 140 50 c 128,-1,28
 184 50 184 50 207.5 74 c 128,-1,29
 231 98 231 98 231 145 c 2,18,-1
EndSplineSet
EndChar

StartChar: P
Encoding: 80 80 51
Width: 364
GlyphClass: 1
Flags: W
LayerCount: 2
Fore
SplineSet
-1 428 m 2,0,1
 -1 447 -1 447 9 457 c 128,-1,2
 19 467 19 467 37 467 c 2,3,-1
 172 467 l 2,4,5
 229 467 229 467 260 427 c 0,6,7
 285 395 285 395 285 344 c 0,8,9
 285 252 285 252 232 220 c 0,10,11
 209 207 209 207 174 207 c 2,12,-1
 75 208 l 2,13,14
 57 208 57 208 54 205 c 0,15,16
 50 202 50 202 50 183 c 2,17,-1
 50 38 l 2,18,19
 50 2 50 2 34 0 c 0,20,21
 30 0 30 0 25 0 c 0,22,23
 12 0 12 0 8 4 c 0,24,25
 0 12 0 12 0 38 c 2,26,-1
 -1 428 l 2,0,1
50 283 m 2,27,28
 50 264 50 264 54 261 c 0,29,30
 57 258 57 258 75 258 c 2,31,-1
 155 258 l 2,32,33
 197 258 197 258 216 283 c 0,34,35
 231 302 231 302 231 336 c 0,36,37
 231 394 231 394 195 410 c 0,38,39
 178 417 178 417 155 417 c 2,40,-1
 75 417 l 2,41,42
 57 417 57 417 54 414 c 0,43,44
 50 411 50 411 50 392 c 2,45,-1
 50 283 l 2,27,28
EndSplineSet
EndChar

StartChar: Q
Encoding: 81 81 52
Width: 364
GlyphClass: 1
Flags: W
LayerCount: 2
Fore
SplineSet
244 25 m 2,0,-1
 262 -5 l 2,1,2
 273 -23 273 -23 273 -34 c 0,3,4
 273 -41 273 -41 268 -44 c 0,5,6
 254 -54 254 -54 245 -54 c 0,7,8
 243 -54 243 -54 242 -54 c 0,9,10
 232 -52 232 -52 219 -30 c 2,11,-1
 201 1 l 2,12,13
 197 6 197 6 191 6 c 0,14,15
 190 6 190 6 188 6 c 0,16,17
 170 1 170 1 140 1 c 0,18,19
 0 1 0 1 0 148 c 2,20,-1
 0 319 l 2,21,22
 0 466 0 466 140 466 c 0,23,24
 144 466 144 466 147 466 c 0,25,26
 244 466 244 466 272 384 c 0,27,28
 281 356 281 356 281 319 c 2,29,-1
 281 148 l 2,30,31
 281 79 281 79 247 39 c 0,32,33
 243 36 243 36 243 31 c 0,34,35
 243 28 243 28 244 25 c 2,0,-1
208 87 m 2,36,37
 211 84 211 84 213.5 84 c 128,-1,38
 216 84 216 84 218 87 c 0,39,40
 231 111 231 111 231 145 c 2,41,-1
 231 322 l 2,42,43
 231 370 231 370 207.5 393.5 c 128,-1,44
 184 417 184 417 140 417 c 0,45,46
 50 415 50 415 50 322 c 2,47,-1
 50 145 l 2,48,49
 50 98 50 98 73 74 c 128,-1,50
 96 50 96 50 140 50 c 0,51,52
 146 50 146 50 150 50 c 0,53,54
 153 49 153 49 154 49 c 0,55,56
 163 49 163 49 165 54 c 0,57,58
 165 55 165 55 165 56 c 0,59,60
 165 58 165 58 164 60 c 2,61,-1
 148 92 l 2,62,63
 138 109 138 109 138 120 c 0,64,65
 138 127 138 127 144 132 c 0,66,67
 147 135 147 135 159 141 c 0,68,69
 162 142 162 142 164 142 c 0,70,71
 176 142 176 142 191 117 c 2,72,-1
 208 87 l 2,36,37
EndSplineSet
EndChar

StartChar: R
Encoding: 82 82 53
Width: 364
GlyphClass: 1
Flags: W
LayerCount: 2
Fore
SplineSet
-1 428 m 2,0,1
 -1 447 -1 447 9 457 c 128,-1,2
 19 467 19 467 37 467 c 2,3,-1
 172 467 l 2,4,5
 229 467 229 467 260 427 c 0,6,7
 285 395 285 395 285 344 c 0,8,9
 285 274 285 274 254 238 c 0,10,11
 241 224 241 224 220 215 c 0,12,13
 216 213 216 213 216 206 c 0,14,15
 216 186 216 186 250 101 c 0,16,17
 258 82 258 82 271 54 c 0,18,19
 275 45 275 45 276 42 c 0,20,21
 279 23 279 23 279 17 c 2,22,-1
 279 16 l 2,23,24
 277 0 277 0 258 0 c 0,25,26
 241 0 241 0 217 39 c 0,27,28
 202 58 202 58 190 114 c 0,29,30
 174 187 174 187 155 202 c 0,31,32
 148 208 148 208 138 208 c 2,33,-1
 75 208 l 2,34,35
 57 208 57 208 54 205 c 0,36,37
 50 202 50 202 50 183 c 2,38,-1
 50 38 l 2,39,40
 50 2 50 2 34 0 c 0,41,42
 30 0 30 0 25 0 c 0,43,44
 12 0 12 0 8 4 c 0,45,46
 0 12 0 12 0 38 c 2,47,-1
 -1 428 l 2,0,1
50 283 m 2,48,49
 50 264 50 264 54 261 c 0,50,51
 57 258 57 258 75 258 c 2,52,-1
 155 258 l 2,53,54
 197 258 197 258 216 283 c 0,55,56
 231 302 231 302 231 336 c 0,57,58
 231 394 231 394 195 410 c 0,59,60
 178 417 178 417 155 417 c 2,61,-1
 75 417 l 2,62,63
 57 417 57 417 54 414 c 0,64,65
 50 411 50 411 50 392 c 2,66,-1
 50 283 l 2,48,49
EndSplineSet
EndChar

StartChar: S
Encoding: 83 83 54
Width: 364
GlyphClass: 1
Flags: W
LayerCount: 2
Fore
SplineSet
133 467 m 0,0,1
 203 467 203 467 232 454 c 0,2,3
 258 442 258 442 270 426 c 0,4,5
 276 418 276 418 276 409 c 0,6,7
 276 404 276 404 274 399 c 0,8,9
 272 393 272 393 267 389 c 0,10,11
 261 383 261 383 252 383 c 0,12,13
 237 383 237 383 213 399 c 0,14,15
 180 417 180 417 131 417 c 0,16,17
 97 417 97 417 73 397 c 0,18,19
 50 378 50 378 50 351 c 0,20,21
 50 317 50 317 74 295 c 0,22,23
 100 270 100 270 145 270 c 0,24,25
 210 270 210 270 254 214 c 0,26,27
 282 181 282 181 282 130 c 0,28,29
 282 69 282 69 244 35 c 0,30,31
 205 0 205 0 133 0 c 0,32,33
 82 0 82 0 47 15 c 0,34,35
 24 25 24 25 14 40 c 0,36,37
 2 52 2 52 -1 72 c 0,38,39
 -2 76 -2 76 -2 79 c 0,40,41
 -2 90 -2 90 4 93 c 0,42,43
 15 98 15 98 22 98 c 0,44,45
 25 98 25 98 28 97 c 0,46,47
 40 93 40 93 54 73 c 0,48,49
 72 52 72 52 108 50 c 0,50,51
 121 50 121 50 138 50 c 0,52,53
 205 50 205 50 224 92 c 0,54,55
 231 107 231 107 231 127 c 0,56,57
 231 163 231 163 208 190 c 0,58,59
 181 220 181 220 138 220 c 0,60,61
 72 220 72 220 36 255 c 0,62,63
 0 289 0 289 0 348 c 0,64,65
 0 430 0 430 78 458 c 0,66,67
 102 467 102 467 133 467 c 0,0,1
EndSplineSet
EndChar

StartChar: T
Encoding: 84 84 55
Width: 364
GlyphClass: 1
Flags: W
LayerCount: 2
Fore
SplineSet
120 38 m 2,0,-1
 120 392 l 2,1,2
 120 404 120 404 104 414 c 0,3,4
 100 417 100 417 95 417 c 2,5,-1
 37 417 l 2,6,7
 2 417 2 417 0 432 c 0,8,9
 0 437 0 437 0 442 c 0,10,11
 0 455 0 455 4 460 c 0,12,13
 12 467 12 467 37 467 c 2,14,-1
 243 467 l 2,15,16
 279 467 279 467 280 452 c 0,17,18
 281 447 281 447 281 442 c 0,19,20
 281 429 281 429 276 424 c 0,21,22
 269 417 269 417 243 417 c 2,23,-1
 195 417 l 2,24,25
 188 417 188 417 178 408 c 0,26,27
 170 402 170 402 170 392 c 2,28,-1
 170 38 l 2,29,30
 170 2 170 2 154 0 c 0,31,32
 150 0 150 0 145 0 c 0,33,34
 132 0 132 0 128 4 c 0,35,36
 120 12 120 12 120 38 c 2,0,-1
EndSplineSet
EndChar

StartChar: U
Encoding: 85 85 56
Width: 364
GlyphClass: 1
Flags: W
LayerCount: 2
Fore
SplineSet
0 430 m 2,0,1
 0 465 0 465 16 466 c 0,2,3
 20 467 20 467 25 467 c 0,4,5
 38 467 38 467 42 462 c 0,6,7
 50 455 50 455 50 430 c 2,8,-1
 50 144 l 2,9,10
 50 102 50 102 79 74 c 0,11,12
 104 50 104 50 145 50 c 0,13,14
 205 50 205 50 224 96 c 0,15,16
 231 111 231 111 231 130 c 2,17,-1
 231 430 l 2,18,19
 231 465 231 465 246 466 c 0,20,21
 251 467 251 467 256 467 c 0,22,23
 268 467 268 467 272 462 c 0,24,25
 281 454 281 454 281 430 c 2,26,-1
 281 108 l 2,27,28
 281 66 281 66 240 32 c 0,29,30
 202 0 202 0 145 0 c 0,31,32
 121 0 121 0 92 9 c 0,33,34
 69 16 69 16 46 34 c 0,35,36
 14 58 14 58 4 96 c 0,37,38
 0 109 0 109 0 123 c 2,39,-1
 0 430 l 2,0,1
EndSplineSet
EndChar

StartChar: V
Encoding: 86 86 57
Width: 364
GlyphClass: 1
Flags: W
LayerCount: 2
Fore
SplineSet
274 465 m 0,0,1
 289 465 289 465 289 442 c 0,2,3
 289 429 289 429 284 412 c 0,4,5
 282 408 282 408 281 403 c 2,6,-1
 180 34 l 2,7,8
 170 0 170 0 142 0 c 0,9,10
 112 0 112 0 101 33 c 0,11,12
 98 42 98 42 96 50 c 2,13,-1
 12 380 l 1,14,-1
 4 411 l 2,15,16
 0 428 0 428 0 440 c 0,17,18
 0 451 0 451 4 458 c 0,19,20
 7 465 7 465 18 465 c 0,21,22
 34 465 34 465 40 457 c 0,23,24
 48 448 48 448 52 429 c 2,25,-1
 144 106 l 1,26,-1
 248 442 l 2,27,28
 256 465 256 465 274 465 c 0,0,1
EndSplineSet
EndChar

StartChar: W
Encoding: 87 87 58
Width: 364
GlyphClass: 1
Flags: W
LayerCount: 2
Fore
SplineSet
59 0 m 0,0,1
 38 0 38 0 34 38 c 2,2,-1
 -7 429 l 2,3,4
 -7 432 -7 432 -7 435 c 0,5,6
 -7 447 -7 447 -2 456 c 0,7,8
 4 468 4 468 14 468 c 128,-1,9
 24 468 24 468 32 458 c 0,10,11
 40 449 40 449 42 432 c 2,12,-1
 66 160 l 1,13,-1
 120 339 l 2,14,15
 126 361 126 361 145 361 c 0,16,17
 153 361 153 361 160 355 c 128,-1,18
 167 349 167 349 170 339 c 2,19,-1
 223 169 l 1,20,-1
 256 425 l 2,21,22
 260 451 260 451 274 462 c 0,23,24
 279 466 279 466 285 466 c 0,25,26
 313 466 313 466 313 422 c 0,27,28
 313 401 313 401 310 389 c 2,29,-1
 254 38 l 2,30,31
 248 0 248 0 229 0 c 0,32,33
 215 0 215 0 209 21 c 2,34,-1
 204 38 l 1,35,-1
 163 200 l 2,36,37
 159 218 159 218 146 218 c 0,38,39
 141 218 141 218 136 213.5 c 128,-1,40
 131 209 131 209 129 200 c 2,41,-1
 80 23 l 2,42,43
 73 0 73 0 59 0 c 0,0,1
EndSplineSet
EndChar

StartChar: X
Encoding: 88 88 59
Width: 364
GlyphClass: 1
Flags: W
LayerCount: 2
Fore
SplineSet
252 -2 m 0,0,1
 236 -2 236 -2 223 21 c 2,2,-1
 153 154 l 2,3,4
 145 170 145 170 135 170 c 128,-1,5
 125 170 125 170 115 152 c 2,6,-1
 44 27 l 2,7,8
 31 4 31 4 16 4 c 0,9,10
 11 4 11 4 6 7 c 0,11,12
 -1 11 -1 11 -1 22 c 0,13,14
 -1 35 -1 35 8 56 c 2,15,-1
 105 223 l 2,16,17
 109 230 109 230 109 236.5 c 128,-1,18
 109 243 109 243 105 248 c 2,19,-1
 15 420 l 2,20,21
 9 432 9 432 9 443 c 0,22,23
 9 451 9 451 12 458 c 0,24,25
 18 468 18 468 28 468 c 0,26,27
 29 468 29 468 30 468 c 0,28,29
 40 467 40 467 51 456 c 0,30,31
 56 451 56 451 60 443 c 2,32,-1
 117 332 l 2,33,34
 130 308 130 308 142.5 308 c 128,-1,35
 155 308 155 308 169 332 c 2,36,-1
 223 432 l 2,37,38
 236 455 236 455 255 458 c 0,39,40
 257 458 257 458 259 458 c 0,41,42
 268 458 268 458 272 450 c 0,43,44
 273 446 273 446 273 442 c 0,45,46
 273 432 273 432 264 415 c 2,47,-1
 177 255 l 2,48,49
 174 249 174 249 174 242 c 0,50,51
 174 234 174 234 177 230 c 2,52,-1
 267 44 l 2,53,54
 274 31 274 31 274 21 c 0,55,56
 274 13 274 13 270 6 c 0,57,58
 264 -2 264 -2 252 -2 c 0,0,1
EndSplineSet
EndChar

StartChar: Y
Encoding: 89 89 60
Width: 364
GlyphClass: 1
Flags: W
LayerCount: 2
Fore
SplineSet
150 273 m 0,0,1
 162 273 162 273 180 310 c 2,2,-1
 238 432 l 2,3,4
 246 449 246 449 256 454 c 0,5,6
 261 457 261 457 265 457 c 0,7,8
 273 457 273 457 280 450 c 0,9,10
 286 444 286 444 286 435 c 0,11,12
 286 432 286 432 285 428 c 0,13,14
 284 421 284 421 280 413 c 2,15,-1
 216 280 l 1,16,-1
 186 216 l 2,17,18
 170 179 170 179 170 156 c 2,19,-1
 170 37 l 2,20,21
 170 2 170 2 154 0 c 0,22,23
 150 0 150 0 145 0 c 0,24,25
 132 0 132 0 128 4 c 0,26,27
 120 12 120 12 120 38 c 2,28,-1
 120 155 l 2,29,30
 120 195 120 195 92 250 c 2,31,-1
 78 280 l 1,32,-1
 12 414 l 2,33,34
 6 428 6 428 6 439 c 0,35,36
 6 447 6 447 10 453 c 0,37,38
 15 462 15 462 25 462 c 0,39,40
 36 462 36 462 46 452 c 0,41,42
 52 447 52 447 56 439 c 2,43,-1
 121 309 l 2,44,45
 139 273 139 273 150 273 c 0,0,1
EndSplineSet
EndChar

StartChar: Z
Encoding: 90 90 61
Width: 364
GlyphClass: 1
Flags: W
LayerCount: 2
Fore
SplineSet
0 25 m 0,0,1
 0 45 0 45 13 67 c 2,2,-1
 102 223 l 1,3,-1
 204 399 l 2,4,5
 205 402 205 402 205 405 c 0,6,7
 205 410 205 410 200 414 c 0,8,9
 197 417 197 417 188 417 c 2,10,-1
 37 417 l 2,11,12
 11 417 11 417 2 432 c 0,13,14
 0 437 0 437 0 442 c 0,15,16
 0 459 0 459 21 465 c 0,17,18
 28 467 28 467 37 467 c 2,19,-1
 243 467 l 2,20,21
 270 467 270 467 278 452 c 0,22,23
 281 447 281 447 281 442 c 0,24,25
 281 427 281 427 272 410 c 0,26,27
 270 405 270 405 268 400 c 2,28,-1
 179 243 l 1,29,-1
 76 68 l 2,30,31
 74 65 74 65 74 62 c 0,32,33
 74 57 74 57 78 53 c 0,34,35
 82 50 82 50 91 50 c 2,36,-1
 243 50 l 2,37,38
 279 50 279 50 280 34 c 0,39,40
 281 30 281 30 281 25 c 0,41,42
 281 12 281 12 276 8 c 0,43,44
 267 0 267 0 243 0 c 2,45,-1
 38 0 l 2,46,47
 11 0 11 0 2 16 c 0,48,49
 0 20 0 20 0 25 c 0,0,1
EndSplineSet
EndChar

StartChar: bracketleft
Encoding: 91 91 62
Width: 364
GlyphClass: 1
Flags: W
LayerCount: 2
Fore
SplineSet
55 -33 m 2,0,-1
 55 493 l 2,1,2
 55 531 55 531 92 531 c 2,3,-1
 187 531 l 2,4,5
 223 531 223 531 224 519 c 0,6,7
 225 515 225 515 225 510 c 0,8,9
 225 499 225 499 220 494 c 0,10,11
 213 487 213 487 187 487 c 2,12,-1
 130 484 l 2,13,14
 114 484 114 484 107 468 c 0,15,16
 105 464 105 464 105 460 c 2,17,-1
 105 -1 l 2,18,19
 105 -16 105 -16 120 -23 c 0,20,21
 125 -25 125 -25 130 -25 c 2,22,-1
 187 -28 l 2,23,24
 223 -28 223 -28 224 -44 c 0,25,26
 225 -48 225 -48 225 -52 c 0,27,28
 225 -63 225 -63 220 -66 c 0,29,30
 214 -71 214 -71 187 -71 c 2,31,-1
 92 -71 l 2,32,33
 55 -71 55 -71 55 -33 c 2,0,-1
EndSplineSet
EndChar

StartChar: backslash
Encoding: 92 92 63
Width: 364
GlyphClass: 1
Flags: W
LayerCount: 2
Fore
SplineSet
310 -2 m 2,0,1
 316 -17 316 -17 316 -27 c 0,2,3
 316 -36 316 -36 312 -41 c 0,4,5
 308 -45 308 -45 296 -50 c 0,6,7
 294 -50 294 -50 292 -50 c 0,8,9
 279 -50 279 -50 266 -25 c 2,10,-1
 8 478 l 2,11,12
 0 493 0 493 0 504 c 0,13,14
 0 521 0 521 22 526 c 0,15,16
 24 526 24 526 26 526 c 0,17,18
 40 526 40 526 52 501 c 2,19,-1
 310 -2 l 2,0,1
EndSplineSet
EndChar

StartChar: bracketright
Encoding: 93 93 64
Width: 364
GlyphClass: 1
Flags: W
LayerCount: 2
Fore
SplineSet
220 493 m 2,0,-1
 220 -33 l 2,1,2
 220 -71 220 -71 182 -71 c 2,3,-1
 87 -71 l 2,4,5
 52 -71 52 -71 50 -60 c 0,6,7
 50 -57 50 -57 50 -52 c 0,8,9
 50 -40 50 -40 56 -36 c 0,10,11
 67 -28 67 -28 87 -28 c 2,12,-1
 145 -25 l 2,13,14
 154 -25 154 -25 162 -18 c 0,15,16
 170 -12 170 -12 170 -1 c 2,17,-1
 170 460 l 2,18,19
 170 475 170 475 154 482 c 0,20,21
 150 484 150 484 145 484 c 2,22,-1
 87 487 l 2,23,24
 55 487 55 487 51 502 c 0,25,26
 50 506 50 506 50 510 c 0,27,28
 50 522 50 522 54 526 c 0,29,30
 62 531 62 531 87 531 c 2,31,-1
 182 531 l 2,32,33
 220 531 220 531 220 493 c 2,0,-1
EndSplineSet
EndChar

StartChar: asciicircum
Encoding: 94 94 65
Width: 364
GlyphClass: 1
Flags: W
LayerCount: 2
Fore
SplineSet
294 274 m 2,0,-1
 278 294 l 1,1,-1
 177 428 l 1,2,-1
 64 282 l 2,3,4
 49 263 49 263 32 263 c 0,5,6
 29 263 29 263 26 264 c 0,7,8
 12 267 12 267 12 299 c 0,9,10
 12 321 12 321 31 347 c 2,11,-1
 121 468 l 1,12,-1
 135 486 l 2,13,14
 158 514 158 514 174 514 c 0,15,16
 197 514 197 514 215 487 c 2,17,-1
 327 335 l 2,18,19
 343 318 343 318 343 299 c 0,20,21
 343 289 343 289 338 278 c 0,22,23
 330 261 330 261 318 261 c 0,24,25
 308 261 308 261 294 274 c 2,0,-1
EndSplineSet
EndChar

StartChar: underscore
Encoding: 95 95 66
Width: 364
GlyphClass: 1
Flags: W
LayerCount: 2
Fore
SplineSet
383 26 m 256,0,1
 383 1 383 1 340 1 c 2,2,-1
 29 1 l 2,3,4
 -12 1 -12 1 -14 14 c 0,5,6
 -14 19 -14 19 -14 26 c 0,7,8
 -14 44 -14 44 -6 48 c 0,9,10
 -1 51 -1 51 8 51 c 2,11,-1
 162 51 l 1,12,-1
 161 51 l 1,13,-1
 158 51 l 1,14,-1
 340 51 l 2,15,16
 383 51 383 51 383 26 c 256,0,1
EndSplineSet
EndChar

StartChar: grave
Encoding: 96 96 67
Width: 364
GlyphClass: 1
Flags: W
LayerCount: 2
Fore
SplineSet
257 383 m 1,0,1
 269 366 269 366 269 354 c 0,2,3
 269 349 269 349 267 345 c 0,4,5
 264 340 264 340 252 334 c 0,6,7
 252 333 252 333 250 333 c 0,8,9
 243 333 243 333 218 353 c 2,10,-1
 77 463 l 2,11,12
 59 477 59 477 59 489 c 0,13,14
 59 503 59 503 82 512 c 0,15,16
 83 513 83 513 84 513 c 0,17,18
 92 513 92 513 117 493 c 2,19,-1
 257 383 l 1,0,1
EndSplineSet
EndChar

StartChar: a
Encoding: 97 97 68
Width: 364
GlyphClass: 1
Flags: W
LayerCount: 2
Fore
SplineSet
0 91 m 0,0,1
 0 165 0 165 63 180 c 0,2,3
 92 186 92 186 130 186 c 2,4,-1
 193 186 l 2,5,6
 219 186 219 186 219 223 c 0,7,8
 219 257 219 257 177 272 c 0,9,10
 163 277 163 277 145 277 c 0,11,12
 97 274 97 274 76 246 c 0,13,14
 69 238 69 238 63 228 c 0,15,16
 58 219 58 219 45 216 c 0,17,18
 41 214 41 214 37 214 c 0,19,20
 31 214 31 214 25 217 c 0,21,22
 11 224 11 224 11 253 c 0,23,24
 11 286 11 286 50 308 c 0,25,26
 88 329 88 329 141 329 c 0,27,28
 146 329 146 329 150 329 c 0,29,30
 208 329 208 329 244 295 c 0,31,32
 274 265 274 265 274 221 c 2,33,-1
 274 66 l 2,34,35
 274 58 274 58 281 44 c 0,36,37
 287 32 287 32 287 22 c 128,-1,38
 287 12 287 12 272 6 c 0,39,40
 264 4 264 4 258 4 c 128,-1,41
 252 4 252 4 246 6 c 0,42,43
 224 16 224 16 216 16 c 0,44,45
 209 16 209 16 206 14 c 0,46,47
 204 12 204 12 201 11 c 128,-1,48
 198 10 198 10 194 8 c 0,49,50
 192 6 192 6 172 2 c 0,51,52
 160 0 160 0 130 0 c 2,53,-1
 112 0 l 2,54,55
 96 0 96 0 69 5 c 0,56,57
 34 11 34 11 14 38 c 0,58,59
 0 58 0 58 0 91 c 0,0,1
138 140 m 0,60,61
 87 138 87 138 70 128 c 0,62,63
 50 118 50 118 50 93 c 128,-1,64
 50 68 50 68 68 58 c 0,65,66
 85 48 85 48 122 48 c 0,67,68
 128 48 128 48 135 48 c 0,69,70
 200 48 200 48 215 77 c 0,71,72
 219 85 219 85 219 93 c 0,73,74
 219 118 219 118 202 128 c 0,75,76
 183 140 183 140 138 140 c 0,60,61
EndSplineSet
EndChar

StartChar: b
Encoding: 98 98 69
Width: 364
GlyphClass: 1
Flags: W
LayerCount: 2
Fore
SplineSet
113 0 m 2,0,1
 80 0 80 0 50 13 c 1,2,3
 41 0 41 0 25 0 c 0,4,5
 12 0 12 0 8 4 c 0,6,7
 0 12 0 12 0 38 c 2,8,-1
 0 430 l 2,9,10
 0 465 0 465 16 466 c 0,11,12
 20 467 20 467 25 467 c 0,13,14
 38 467 38 467 42 462 c 0,15,16
 50 455 50 455 50 430 c 2,17,-1
 50 326 l 2,18,19
 50 320 50 320 54 320 c 0,20,21
 56 320 56 320 58 321 c 0,22,23
 76 330 76 330 141 330 c 0,24,25
 211 330 211 330 245 304 c 0,26,27
 282 275 282 275 290 220 c 0,28,29
 293 199 293 199 293 173 c 0,30,31
 288 36 288 36 196 8 c 0,32,33
 170 0 170 0 144 0 c 2,34,-1
 113 0 l 2,0,1
50 101 m 2,35,36
 50 60 50 60 102 50 c 0,37,38
 117 47 117 47 134 47 c 0,39,40
 164 47 164 47 190 61 c 0,41,42
 226 81 226 81 236 138 c 0,43,44
 239 155 239 155 239 182 c 0,45,46
 239 185 239 185 239 188 c 0,47,48
 239 227 239 227 212 254 c 0,49,50
 181 285 181 285 121 285 c 0,51,52
 94 285 94 285 74 273 c 0,53,54
 50 260 50 260 50 230 c 2,55,-1
 50 101 l 2,35,36
EndSplineSet
EndChar

StartChar: c
Encoding: 99 99 70
Width: 364
GlyphClass: 1
Flags: W
LayerCount: 2
Fore
SplineSet
0 195 m 2,0,1
 0 303 0 303 82 322 c 0,2,3
 108 329 108 329 143 330 c 0,4,5
 213 330 213 330 248 308 c 0,6,7
 285 284 285 284 296 246 c 0,8,9
 298 239 298 239 300 234 c 0,10,11
 301 230 301 230 301 225 c 0,12,13
 301 217 301 217 296 210 c 0,14,15
 287 197 287 197 270 197 c 0,16,17
 252 197 252 197 241 226 c 0,18,19
 228 258 228 258 204 270 c 0,20,21
 184 281 184 281 153 281 c 0,22,23
 148 281 148 281 143 281 c 0,24,25
 50 276 50 276 50 200 c 2,26,-1
 50 121 l 2,27,28
 50 64 50 64 114 52 c 0,29,30
 144 46 144 46 161 46 c 0,31,32
 167 46 167 46 172 46 c 0,33,34
 193 49 193 49 218 60 c 0,35,36
 255 76 255 76 266 76 c 0,37,38
 267 76 267 76 268 76 c 0,39,40
 279 74 279 74 281 57 c 0,41,42
 281 28 281 28 236 12 c 0,43,44
 225 9 225 9 191 3 c 0,45,46
 173 0 173 0 144 0 c 0,47,48
 64 0 64 0 26 36 c 0,49,50
 0 60 0 60 0 105 c 2,51,-1
 0 195 l 2,0,1
EndSplineSet
EndChar

StartChar: d
Encoding: 100 100 71
Width: 364
GlyphClass: 1
Flags: W
LayerCount: 2
Fore
SplineSet
268 0 m 0,0,1
 254 0 254 0 243 13 c 1,2,-1
 212 3 l 2,3,4
 198 0 198 0 180 0 c 2,5,-1
 149 0 l 1,6,-1
 120 2 l 2,7,8
 34 8 34 8 12 80 c 0,9,10
 0 117 0 117 0 173 c 0,11,12
 0 265 0 265 50 304 c 0,13,14
 84 330 84 330 152 330 c 0,15,16
 223 330 223 330 235 321 c 0,17,18
 237 320 237 320 239 320 c 0,19,20
 243 320 243 320 243 326 c 2,21,-1
 243 430 l 2,22,23
 243 465 243 465 258 466 c 0,24,25
 263 467 263 467 268 467 c 0,26,27
 281 467 281 467 286 462 c 0,28,29
 293 455 293 455 293 430 c 2,30,-1
 293 38 l 2,31,32
 293 4 293 4 278 1 c 0,33,34
 273 0 273 0 268 0 c 0,0,1
243 102 m 2,35,-1
 243 231 l 2,36,37
 243 259 243 259 220 274 c 0,38,39
 202 285 202 285 172 285 c 0,40,41
 80 285 80 285 60 228 c 0,42,43
 54 208 54 208 54 183 c 0,44,45
 54 177 54 177 54 171 c 0,46,47
 54 153 54 153 56 130 c 0,48,49
 67 47 67 47 159 47 c 0,50,51
 217 47 217 47 236 77 c 0,52,53
 243 87 243 87 243 102 c 2,35,-1
EndSplineSet
EndChar

StartChar: e
Encoding: 101 101 72
Width: 364
GlyphClass: 1
Flags: W
LayerCount: 2
Fore
SplineSet
0 192 m 2,0,1
 0 267 0 267 36 299 c 0,2,3
 71 330 71 330 141 330 c 0,4,5
 204 330 204 330 252 293 c 0,6,7
 271 279 271 279 284 254 c 0,8,9
 293 234 293 234 293 215 c 0,10,11
 293 211 293 211 293 208 c 0,12,13
 291 180 291 180 278 171 c 0,14,15
 267 163 267 163 230 163 c 2,16,-1
 73 163 l 2,17,18
 50 163 50 163 50 126 c 0,19,20
 50 92 50 92 80 68 c 0,21,22
 108 47 108 47 151 47 c 0,23,24
 182 47 182 47 216 68 c 0,25,26
 225 74 225 74 232 82 c 0,27,28
 248 102 248 102 266 105 c 0,29,30
 267 105 267 105 268 105 c 0,31,32
 273 105 273 105 277 102 c 0,33,34
 284 98 284 98 284 88 c 0,35,36
 284 83 284 83 282 76 c 0,37,38
 278 61 278 61 268 51 c 2,39,-1
 246 32 l 2,40,41
 210 0 210 0 145 0 c 0,42,43
 73 0 73 0 30 36 c 0,44,45
 0 60 0 60 0 100 c 2,46,-1
 0 192 l 2,0,1
85 210 m 2,47,-1
 195 210 l 2,48,49
 230 210 230 210 230 226 c 0,50,51
 230 244 230 244 214 260 c 0,52,53
 189 283 189 283 139 283 c 128,-1,54
 89 283 89 283 67 256 c 0,55,56
 60 248 60 248 60 237 c 0,57,58
 60 214 60 214 72 211 c 0,59,60
 77 210 77 210 85 210 c 2,47,-1
EndSplineSet
EndChar

StartChar: f
Encoding: 102 102 73
Width: 364
GlyphClass: 1
Flags: W
LayerCount: 2
Fore
SplineSet
84 0 m 0,0,1
 69 0 69 0 69 38 c 2,2,-1
 69 254 l 2,3,4
 69 276 69 276 53 276 c 0,5,6
 31 276 31 276 21 284 c 0,7,8
 16 289 16 289 16 301 c 0,9,10
 16 318 16 318 25 322 c 0,11,12
 32 326 32 326 53 326 c 0,13,14
 64 326 64 326 66 348 c 0,15,16
 67 352 67 352 67 354 c 0,17,18
 79 418 79 418 117 444 c 0,19,20
 153 467 153 467 216 467 c 0,21,22
 258 467 258 467 290 451 c 0,23,24
 311 441 311 441 314 422 c 0,25,26
 315 417 315 417 315 412 c 0,27,28
 315 402 315 402 310 394 c 0,29,30
 304 384 304 384 292 384 c 0,31,32
 278 387 278 387 270 395 c 0,33,34
 247 418 247 418 210 418 c 0,35,36
 185 418 185 418 160 404 c 0,37,38
 132 387 132 387 132 362 c 0,39,40
 132 335 132 335 140 328 c 0,41,42
 142 325 142 325 147 325 c 0,43,44
 148 325 148 325 150 325 c 2,45,-1
 191 325 l 2,46,47
 195 325 195 325 199 325 c 0,48,49
 224 325 224 325 227 310 c 0,50,51
 228 305 228 305 228 300 c 0,52,53
 228 288 228 288 222 282 c 0,54,55
 215 275 215 275 190 275 c 2,56,-1
 140 274 l 2,57,58
 120 274 120 274 120 254 c 2,59,-1
 119 38 l 2,60,61
 119 2 119 2 104 0 c 0,62,63
 99 0 99 0 94 0 c 128,-1,64
 89 0 89 0 84 0 c 0,0,1
EndSplineSet
EndChar

StartChar: g
Encoding: 103 103 74
Width: 364
GlyphClass: 1
Flags: W
LayerCount: 2
Fore
SplineSet
230 -23 m 0,0,1
 230 0 230 0 210 0 c 2,2,-1
 142 0 l 2,3,4
 90 0 90 0 68 6 c 0,5,6
 0 26 0 26 0 122 c 2,7,-1
 0 211 l 2,8,9
 0 273 0 273 30 300 c 0,10,11
 58 325 58 325 108 328 c 0,12,13
 138 330 138 330 172 330 c 2,14,-1
 241 330 l 2,15,16
 264 330 264 330 274 326 c 0,17,18
 291 317 291 317 291 293 c 2,19,-1
 291 0 l 2,20,21
 291 -91 291 -91 257 -121 c 0,22,23
 228 -147 228 -147 172 -147 c 2,24,-1
 92 -147 l 2,25,26
 70 -147 70 -147 55 -134 c 0,27,28
 47 -126 47 -126 47 -120 c 0,29,30
 47 -116 47 -116 52 -112 c 0,31,32
 60 -105 60 -105 79 -105 c 2,33,-1
 160 -105 l 2,34,35
 230 -105 230 -105 230 -23 c 0,0,1
49 210 m 2,36,-1
 50 119 l 2,37,38
 50 78 50 78 76 60 c 0,39,40
 94 47 94 47 130 47 c 2,41,-1
 194 47 l 2,42,43
 214 47 214 47 223 56.5 c 128,-1,44
 232 66 232 66 232 87 c 2,45,-1
 235 244 l 2,46,47
 235 281 235 281 206 281 c 2,48,-1
 146 281 l 2,49,50
 100 281 100 281 78 268 c 0,51,52
 49 252 49 252 49 210 c 2,36,-1
EndSplineSet
EndChar

StartChar: h
Encoding: 104 104 75
Width: 364
GlyphClass: 1
Flags: W
LayerCount: 2
Fore
SplineSet
0 38 m 2,0,-1
 0 430 l 2,1,2
 0 465 0 465 16 466 c 0,3,4
 20 467 20 467 25 467 c 0,5,6
 38 467 38 467 42 462 c 0,7,8
 50 455 50 455 50 430 c 2,9,-1
 50 341 l 2,10,11
 50 321 50 321 62 319 c 0,12,13
 63 319 63 319 66 319 c 0,14,15
 75 319 75 319 89 324 c 0,16,17
 110 330 110 330 137 330 c 2,18,-1
 152 330 l 2,19,20
 259 330 259 330 285 268 c 0,21,22
 297 239 297 239 297 185 c 2,23,-1
 297 38 l 2,24,25
 297 2 297 2 280 0 c 0,26,27
 276 0 276 0 272 0 c 0,28,29
 259 0 259 0 254 4 c 0,30,31
 247 12 247 12 247 38 c 2,32,-1
 249 178 l 2,33,34
 249 254 249 254 192 270 c 0,35,36
 172 276 172 276 145 276 c 0,37,38
 103 276 103 276 77 256 c 0,39,40
 50 235 50 235 50 193 c 2,41,-1
 50 38 l 2,42,43
 50 2 50 2 34 0 c 0,44,45
 30 0 30 0 25 0 c 0,46,47
 12 0 12 0 8 4 c 0,48,49
 0 12 0 12 0 38 c 2,0,-1
EndSplineSet
EndChar

StartChar: i
Encoding: 105 105 76
Width: 364
GlyphClass: 1
Flags: W
LayerCount: 2
Fore
SplineSet
166 448 m 0,0,1
 185 448 185 448 194 430 c 0,2,3
 196 424 196 424 196 418 c 0,4,5
 196 399 196 399 178 390 c 0,6,7
 172 388 172 388 166 388 c 0,8,9
 153 388 153 388 144 397 c 0,10,11
 136 405 136 405 136 418 c 0,12,13
 136 430 136 430 144 440 c 0,14,15
 152 448 152 448 166 448 c 0,0,1
87 0 m 2,16,17
 52 0 52 0 50 16 c 0,18,19
 50 20 50 20 50 25 c 0,20,21
 50 39 50 39 54 43 c 0,22,23
 63 50 63 50 87 50 c 2,24,-1
 121 50 l 2,25,26
 139 50 139 50 142.5 53.5 c 128,-1,27
 146 57 146 57 146 75 c 2,28,-1
 146 250 l 2,29,30
 146 263 146 263 130 272 c 0,31,32
 125 275 125 275 121 275 c 0,33,34
 77 275 77 275 74 290 c 0,35,36
 73 295 73 295 73 300 c 0,37,38
 73 315 73 315 94 322 c 0,39,40
 101 325 101 325 111 325 c 2,41,-1
 158 325 l 2,42,43
 194 325 194 325 196 300 c 0,44,45
 196 293 196 293 196 287 c 2,46,-1
 196 75 l 2,47,48
 196 57 196 57 199 54 c 0,49,50
 202 50 202 50 221 50 c 2,51,-1
 242 50 l 2,52,53
 278 50 278 50 280 34 c 0,54,55
 280 30 280 30 280 25 c 0,56,57
 280 11 280 11 276 7 c 0,58,59
 267 0 267 0 242 0 c 2,60,-1
 87 0 l 2,16,17
EndSplineSet
EndChar

StartChar: j
Encoding: 106 106 77
Width: 364
GlyphClass: 1
Flags: W
LayerCount: 2
Fore
SplineSet
0 -9 m 0,0,1
 0 9 0 9 10 15 c 0,2,3
 14 18 14 18 19 18 c 0,4,5
 36 18 36 18 52 -24 c 0,6,7
 65 -58 65 -58 88 -64 c 0,8,9
 96 -66 96 -66 106 -66 c 0,10,11
 149 -66 149 -66 162 -44 c 0,12,13
 175 -24 175 -24 175 37 c 2,14,-1
 175 250 l 2,15,16
 175 263 175 263 158 272 c 0,17,18
 154 275 154 275 150 275 c 0,19,20
 104 275 104 275 102 290 c 0,21,22
 102 295 102 295 102 300 c 0,23,24
 102 315 102 315 123 322 c 0,25,26
 130 325 130 325 139 325 c 2,27,-1
 187 325 l 2,28,29
 220 325 220 325 224 300 c 0,30,31
 225 293 225 293 225 287 c 2,32,-1
 225 50 l 2,33,34
 225 -43 225 -43 200 -75 c 0,35,36
 185 -94 185 -94 164 -100 c 0,37,38
 140 -108 140 -108 109 -108 c 0,39,40
 58 -108 58 -108 32 -84 c 0,41,42
 0 -54 0 -54 0 -20 c 0,43,44
 0 -13 0 -13 0 -9 c 0,0,1
194 448 m 0,45,46
 215 448 215 448 222 430 c 0,47,48
 224 424 224 424 224 418 c 0,49,50
 224 398 224 398 206 390 c 0,51,52
 201 388 201 388 194 388 c 0,53,54
 175 388 175 388 166 406 c 0,55,56
 164 412 164 412 164 418 c 0,57,58
 164 429 164 429 173 440 c 0,59,60
 181 448 181 448 194 448 c 0,45,46
EndSplineSet
EndChar

StartChar: k
Encoding: 107 107 78
Width: 364
GlyphClass: 1
Flags: W
LayerCount: 2
Fore
SplineSet
279 297 m 0,0,1
 279 281 279 281 267 269 c 2,2,-1
 179 192 l 2,3,4
 158 173 158 173 158 157 c 0,5,6
 158 145 158 145 170 134 c 2,7,-1
 256 59 l 2,8,9
 278 41 278 41 280 20 c 0,10,11
 280 19 280 19 280 18 c 0,12,13
 280 0 280 0 260 0 c 0,14,15
 234 0 234 0 216 17 c 2,16,-1
 200 32 l 1,17,-1
 127 100 l 2,18,19
 119 109 119 109 107 109 c 0,20,21
 98 109 98 109 87 104 c 0,22,23
 50 86 50 86 50 55 c 2,24,-1
 50 38 l 2,25,26
 50 2 50 2 34 0 c 0,27,28
 30 0 30 0 25 0 c 0,29,30
 12 0 12 0 8 4 c 0,31,32
 0 12 0 12 0 38 c 2,33,-1
 0 430 l 2,34,35
 0 465 0 465 16 466 c 0,36,37
 20 467 20 467 25 467 c 0,38,39
 38 467 38 467 42 462 c 0,40,41
 50 455 50 455 50 430 c 2,42,-1
 50 166 l 2,43,44
 50 157 50 157 52 155 c 0,45,46
 54 154 54 154 55 154 c 0,47,48
 61 154 61 154 74 165 c 2,49,-1
 92 181 l 1,50,-1
 236 310 l 2,51,52
 245 318 245 318 252 318 c 0,53,54
 273 318 273 318 278 305 c 0,55,56
 279 301 279 301 279 297 c 0,0,1
EndSplineSet
EndChar

StartChar: l
Encoding: 108 108 79
Width: 364
GlyphClass: 1
Flags: W
LayerCount: 2
Fore
SplineSet
52 0 m 2,0,1
 18 0 18 0 15 16 c 0,2,3
 14 20 14 20 14 25 c 0,4,5
 14 38 14 38 20 43 c 0,6,7
 28 50 28 50 52 50 c 2,8,-1
 99 50 l 2,9,10
 117 50 117 50 120 54 c 0,11,12
 124 58 124 58 124 75 c 2,13,-1
 124 392 l 2,14,15
 124 406 124 406 108 414 c 0,16,17
 104 417 104 417 99 417 c 0,18,19
 54 417 54 417 52 432 c 0,20,21
 52 437 52 437 52 442 c 0,22,23
 52 467 52 467 89 467 c 2,24,-1
 137 467 l 2,25,26
 161 467 161 467 170 453 c 0,27,28
 174 445 174 445 174 430 c 2,29,-1
 174 75 l 2,30,31
 174 58 174 58 178 54 c 0,32,33
 181 50 181 50 199 50 c 2,34,-1
 235 50 l 2,35,36
 270 50 270 50 272 34 c 0,37,38
 272 30 272 30 272 25 c 0,39,40
 272 11 272 11 268 7 c 0,41,42
 259 0 259 0 235 0 c 2,43,-1
 52 0 l 2,0,1
EndSplineSet
EndChar

StartChar: m
Encoding: 109 109 80
Width: 364
GlyphClass: 1
Flags: W
LayerCount: 2
Fore
SplineSet
18 0 m 0,0,1
 5 0 5 0 1 4 c 0,2,3
 -6 13 -6 13 -6 38 c 2,4,-1
 -6 304 l 2,5,6
 -6 321 -6 321 6 328 c 0,7,8
 11 330 11 330 17 330 c 0,9,10
 33 330 33 330 41 316 c 0,11,12
 43 313 43 313 43 310 c 1,13,14
 56 330 56 330 98 330 c 0,15,16
 118 330 118 330 138 317 c 2,17,-1
 152 308 l 2,18,19
 157 305 157 305 162 305 c 0,20,21
 164 305 164 305 165 305 c 0,22,23
 171 305 171 305 178 309 c 2,24,-1
 192 318 l 2,25,26
 214 330 214 330 236 330 c 0,27,28
 291 327 291 327 310 271 c 0,29,30
 317 252 317 252 317 227 c 2,31,-1
 317 38 l 2,32,33
 317 2 317 2 300 0 c 0,34,35
 296 0 296 0 292 0 c 0,36,37
 279 0 279 0 274 4 c 0,38,39
 267 12 267 12 267 38 c 2,40,-1
 267 214 l 2,41,42
 267 241 267 241 254 260 c 0,43,44
 242 277 242 277 224 277 c 0,45,46
 208 275 208 275 195 258 c 0,47,48
 183 242 183 242 183 218 c 2,49,-1
 183 38 l 2,50,51
 183 2 183 2 166 0 c 0,52,53
 162 0 162 0 158 0 c 0,54,55
 145 0 145 0 140 4 c 0,56,57
 133 12 133 12 133 38 c 2,58,-1
 133 218 l 2,59,60
 133 237 133 237 120 258 c 0,61,62
 108 280 108 280 90 280 c 0,63,64
 71 280 71 280 58 263 c 0,65,66
 43 245 43 245 43 218 c 2,67,-1
 43 38 l 2,68,69
 43 2 43 2 28 0 c 0,70,71
 23 0 23 0 18 0 c 0,0,1
EndSplineSet
EndChar

StartChar: n
Encoding: 110 110 81
Width: 364
GlyphClass: 1
Flags: W
LayerCount: 2
Fore
SplineSet
50 315 m 0,0,1
 50 313 50 313 54 313 c 0,2,3
 60 313 60 313 76 318 c 0,4,5
 116 330 116 330 158 330 c 0,6,7
 215 330 215 330 254 303 c 0,8,9
 295 275 295 275 295 224 c 2,10,-1
 295 38 l 2,11,12
 295 2 295 2 280 0 c 0,13,14
 275 0 275 0 270 0 c 0,15,16
 258 0 258 0 254 4 c 0,17,18
 245 13 245 13 245 38 c 2,19,-1
 245 199 l 2,20,21
 245 255 245 255 188 274 c 0,22,23
 169 280 169 280 146 280 c 0,24,25
 77 280 77 280 56 224 c 0,26,27
 50 209 50 209 50 193 c 2,28,-1
 50 38 l 2,29,30
 50 2 50 2 34 0 c 0,31,32
 30 0 30 0 25 0 c 0,33,34
 12 0 12 0 8 4 c 0,35,36
 0 12 0 12 0 38 c 2,37,-1
 0 293 l 2,38,39
 0 328 0 328 16 330 c 0,40,41
 21 330 21 330 25 330 c 0,42,43
 46 330 46 330 50 315 c 0,0,1
EndSplineSet
EndChar

StartChar: o
Encoding: 111 111 82
Width: 364
GlyphClass: 1
Flags: W
LayerCount: 2
Fore
SplineSet
281 183 m 2,0,-1
 281 148 l 2,1,2
 281 78 281 78 265 49 c 0,3,4
 252 26 252 26 232 16 c 0,5,6
 202 1 202 1 156 1 c 0,7,8
 148 1 148 1 140 1 c 0,9,10
 76 1 76 1 48 14 c 0,11,12
 26 25 26 25 16 45 c 0,13,14
 0 76 0 76 0 148 c 2,15,-1
 0 183 l 2,16,17
 0 271 0 271 31 302 c 0,18,19
 59 330 59 330 123 330 c 0,20,21
 131 330 131 330 140 330 c 0,22,23
 219 330 219 330 250 301 c 0,24,25
 281 271 281 271 281 183 c 2,0,-1
231 145 m 2,26,-1
 231 186 l 2,27,28
 231 237 231 237 214 257 c 0,29,30
 195 280 195 280 147 280 c 0,31,32
 144 280 144 280 140 280 c 0,33,34
 86 280 86 280 66 256 c 0,35,36
 50 237 50 237 50 186 c 2,37,-1
 50 145 l 2,38,39
 50 92 50 92 68 72 c 0,40,41
 88 50 88 50 140 50 c 0,42,43
 193 50 193 50 212 71 c 128,-1,44
 231 92 231 92 231 145 c 2,26,-1
EndSplineSet
EndChar

StartChar: p
Encoding: 112 112 83
Width: 364
GlyphClass: 1
Flags: W
LayerCount: 2
Fore
SplineSet
25 -108 m 0,0,1
 13 -108 13 -108 8 -103 c 0,2,3
 0 -97 0 -97 0 -70 c 2,4,-1
 0 293 l 2,5,6
 0 328 0 328 16 330 c 0,7,8
 20 330 20 330 25 330 c 0,9,10
 40 330 40 330 46 322 c 0,11,12
 51 316 51 316 53 316 c 1,13,-1
 53 315 l 1,14,15
 54 315 54 315 86 324 c 0,16,17
 108 330 108 330 156 330 c 0,18,19
 190 330 190 330 224 316 c 0,20,21
 260 303 260 303 280 266 c 0,22,23
 293 240 293 240 293 203 c 2,24,-1
 293 121 l 2,25,26
 293 67 293 67 252 33 c 0,27,28
 211 0 211 0 149 0 c 2,29,-1
 125 0 l 2,30,31
 90 0 90 0 66 7 c 0,32,33
 65 8 65 8 64 8 c 0,34,35
 60 8 60 8 54 0 c 0,36,37
 50 -6 50 -6 50 -22 c 2,38,-1
 50 -70 l 2,39,40
 50 -104 50 -104 34 -107 c 0,41,42
 30 -108 30 -108 25 -108 c 0,0,1
239 145 m 2,43,-1
 239 185 l 2,44,45
 239 234 239 234 218 257 c 128,-1,46
 197 280 197 280 148 280 c 0,47,48
 144 280 144 280 140 280 c 0,49,50
 86 280 86 280 66 256 c 0,51,52
 50 237 50 237 50 186 c 2,53,-1
 50 145 l 2,54,55
 50 92 50 92 68 72 c 0,56,57
 88 50 88 50 140 50 c 0,58,59
 195 50 195 50 216 70 c 0,60,61
 239 93 239 93 239 145 c 2,43,-1
EndSplineSet
EndChar

StartChar: q
Encoding: 113 113 84
Width: 364
GlyphClass: 1
Flags: W
LayerCount: 2
Fore
SplineSet
268 -108 m 0,0,1
 243 -108 243 -108 243 -70 c 2,2,-1
 243 -22 l 2,3,4
 243 -1 243 -1 234 6 c 0,5,6
 232 8 232 8 230 8 c 0,7,8
 229 8 229 8 227 7 c 0,9,10
 202 0 202 0 168 0 c 2,11,-1
 144 0 l 2,12,13
 81 0 81 0 42 33 c 0,14,15
 0 68 0 68 0 121 c 2,16,-1
 0 203 l 2,17,18
 0 269 0 269 47 304 c 0,19,20
 81 330 81 330 137 330 c 0,21,22
 182 330 182 330 230 318 c 2,23,-1
 240 315 l 1,24,-1
 240 316 l 1,25,26
 242 316 242 316 243 318 c 0,27,28
 246 320 246 320 248 322 c 0,29,30
 254 330 254 330 268 330 c 0,31,32
 281 330 281 330 286 326 c 0,33,34
 293 318 293 318 293 293 c 2,35,-1
 293 -70 l 2,36,37
 293 -97 293 -97 286 -103 c 0,38,39
 280 -108 280 -108 268 -108 c 0,0,1
55 185 m 2,40,-1
 55 145 l 2,41,42
 55 67 55 67 108 54 c 0,43,44
 127 50 127 50 153 50 c 0,45,46
 205 50 205 50 224 72 c 0,47,48
 243 92 243 92 243 145 c 2,49,-1
 243 186 l 2,50,51
 243 238 243 238 227 256 c 0,52,53
 207 280 207 280 153 280 c 0,54,55
 149 280 149 280 146 280 c 0,56,57
 73 280 73 280 60 227 c 0,58,59
 55 209 55 209 55 185 c 2,40,-1
EndSplineSet
EndChar

StartChar: r
Encoding: 114 114 85
Width: 364
GlyphClass: 1
Flags: W
LayerCount: 2
Fore
SplineSet
37 50 m 0,0,1
 57 50 57 50 57 71 c 2,2,-1
 57 259 l 2,3,4
 57 272 57 272 46 278 c 0,5,6
 42 280 42 280 37 280 c 0,7,8
 11 280 11 280 2 296 c 0,9,10
 0 300 0 300 0 305 c 0,11,12
 0 318 0 318 4 322 c 0,13,14
 12 330 12 330 37 330 c 0,15,16
 58 330 58 330 90 324 c 0,17,18
 96 323 96 323 103 323 c 0,19,20
 106 323 106 323 144 330 c 0,21,22
 161 333 161 333 201 333 c 0,23,24
 233 333 233 333 257 314 c 0,25,26
 282 295 282 295 282 272 c 0,27,28
 282 264 282 264 282 255 c 0,29,30
 283 253 283 253 283 251 c 0,31,32
 283 235 283 235 274 224 c 0,33,34
 270 218 270 218 259 217 c 0,35,36
 243 217 243 217 229 241 c 0,37,38
 214 267 214 267 200 276 c 0,39,40
 185 285 185 285 171 285 c 0,41,42
 132 285 132 285 114 258 c 0,43,44
 107 248 107 248 107 234 c 2,45,-1
 107 71 l 2,46,47
 107 58 107 58 114 54 c 0,48,49
 123 50 123 50 160 50 c 0,50,51
 196 50 196 50 198 34 c 0,52,53
 198 30 198 30 198 25 c 0,54,55
 198 12 198 12 194 8 c 0,56,57
 186 0 186 0 160 0 c 2,58,-1
 37 0 l 2,59,60
 2 0 2 0 0 16 c 0,61,62
 0 20 0 20 0 25 c 0,63,64
 0 38 0 38 4 42 c 0,65,66
 12 50 12 50 37 50 c 0,0,1
EndSplineSet
EndChar

StartChar: s
Encoding: 115 115 86
Width: 364
GlyphClass: 1
Flags: W
LayerCount: 2
Fore
SplineSet
148 283 m 0,0,1
 53 283 53 283 53 242 c 0,2,3
 53 214 53 214 75 204 c 0,4,5
 91 198 91 198 145 198 c 0,6,7
 244 198 244 198 270 152 c 0,8,9
 282 132 282 132 282 98 c 0,10,11
 282 43 282 43 244 21 c 0,12,13
 209 0 209 0 133 0 c 0,14,15
 73 0 73 0 34 28 c 0,16,17
 24 35 24 35 18 44 c 0,18,19
 16 47 16 47 13 50 c 0,20,21
 1 62 1 62 -2 82 c 0,22,23
 -3 85 -3 85 -3 88 c 0,24,25
 -3 100 -3 100 4 103 c 0,26,27
 14 108 14 108 21 108 c 0,28,29
 24 108 24 108 26 107 c 0,30,31
 39 103 39 103 53 83 c 0,32,33
 76 57 76 57 108 52 c 0,34,35
 121 50 121 50 138 50 c 2,36,-1
 152 50 l 2,37,38
 202 50 202 50 222 70 c 0,39,40
 232 80 232 80 232 96 c 0,41,42
 232 140 232 140 178 146 c 0,43,44
 161 148 161 148 138 148 c 0,45,46
 37 148 37 148 10 201 c 0,47,48
 0 219 0 219 0 242 c 0,49,50
 0 292 0 292 40 312 c 0,51,52
 75 331 75 331 151 333 c 0,53,54
 224 333 224 333 252 315 c 0,55,56
 259 310 259 310 269 300 c 0,57,58
 286 285 286 285 286 266 c 0,59,60
 286 238 286 238 266 234 c 0,61,62
 263 233 263 233 260 233 c 0,63,64
 249 233 249 233 238 241 c 0,65,66
 231 246 231 246 225 255 c 0,67,68
 204 283 204 283 148 283 c 0,0,1
EndSplineSet
EndChar

StartChar: t
Encoding: 116 116 87
Width: 364
GlyphClass: 1
Flags: W
LayerCount: 2
Fore
SplineSet
252 76 m 4,0,1
 271 76 271 76 276 61 c 5,2,3
 276 47 276 47 264 34 c 4,4,5
 240 11 240 11 192 2 c 4,6,7
 178 0 178 0 160 0 c 4,8,9
 84 0 84 0 58 58 c 4,10,11
 49 79 49 79 49 111 c 6,12,-1
 49 263 l 6,13,14
 49 273 49 273 42 278 c 4,15,16
 40 280 40 280 37 280 c 4,17,18
 2 280 2 280 0 294 c 4,19,20
 0 299 0 299 0 305 c 4,21,22
 0 318 0 318 4 322 c 4,23,24
 12 330 12 330 37 330 c 4,25,26
 45 330 45 330 49 342 c 4,27,28
 50 345 50 345 50 348 c 6,29,-1
 49 430 l 6,30,31
 49 465 49 465 66 466 c 4,32,33
 70 467 70 467 74 467 c 4,34,35
 87 467 87 467 92 462 c 4,36,37
 99 455 99 455 99 430 c 6,38,-1
 99 345 l 6,39,40
 99 337 99 337 103 333.5 c 132,-1,41
 107 330 107 330 117 330 c 6,42,-1
 193 330 l 6,43,44
 227 330 227 330 230 314 c 4,45,46
 231 310 231 310 231 305 c 4,47,48
 231 293 231 293 226 288 c 4,49,50
 218 280 218 280 193 280 c 6,51,-1
 117 280 l 6,52,53
 107 280 107 280 103 276.5 c 132,-1,54
 99 273 99 273 99 263 c 6,55,-1
 99 111 l 6,56,57
 99 80 99 80 118 64 c 4,58,59
 132 53 132 53 160 50 c 4,60,61
 165 49 165 49 171 49 c 4,62,63
 199 49 199 49 225 66 c 4,64,65
 237 73 237 73 252 76 c 4,0,1
EndSplineSet
EndChar

StartChar: u
Encoding: 117 117 88
Width: 364
GlyphClass: 1
Flags: W
LayerCount: 2
Fore
SplineSet
0 293 m 2,0,1
 0 328 0 328 16 330 c 0,2,3
 20 330 20 330 25 330 c 0,4,5
 38 330 38 330 42 326 c 0,6,7
 50 318 50 318 50 293 c 2,8,-1
 50 140 l 2,9,10
 50 80 50 80 102 58 c 0,11,12
 120 50 120 50 147 50 c 0,13,14
 187 50 187 50 205 65 c 0,15,16
 230 86 230 86 230 129 c 2,17,-1
 231 293 l 2,18,19
 231 328 231 328 246 330 c 0,20,21
 251 330 251 330 256 330 c 0,22,23
 268 330 268 330 272 326 c 0,24,25
 281 317 281 317 281 293 c 2,26,-1
 280 38 l 2,27,28
 280 2 280 2 264 0 c 0,29,30
 260 0 260 0 255 0 c 0,31,32
 247 0 247 0 237 5 c 128,-1,33
 227 10 227 10 219 10 c 2,34,-1
 218 10 l 2,35,36
 212 10 212 10 188 5 c 128,-1,37
 164 0 164 0 147 0 c 0,38,39
 39 0 39 0 10 88 c 0,40,41
 0 116 0 116 0 153 c 2,42,-1
 0 293 l 2,0,1
EndSplineSet
EndChar

StartChar: v
Encoding: 118 118 89
Width: 364
GlyphClass: 1
Flags: W
LayerCount: 2
Fore
SplineSet
3 304 m 0,0,1
 3 332 3 332 22 332 c 0,2,3
 42 332 42 332 50 311 c 2,4,-1
 151 101 l 1,5,-1
 244 294 l 2,6,7
 253 316 253 316 256 319 c 0,8,9
 263 330 263 330 274 330 c 0,10,11
 287 330 287 330 290 316 c 0,12,13
 291 313 291 313 291 309 c 0,14,15
 291 297 291 297 284 277 c 0,16,17
 283 272 283 272 282 268 c 2,18,-1
 182 32 l 2,19,20
 170 0 170 0 142 0 c 128,-1,21
 114 0 114 0 102 34 c 2,22,-1
 96 50 l 1,23,-1
 16 246 l 2,24,25
 3 278 3 278 3 304 c 0,0,1
EndSplineSet
EndChar

StartChar: w
Encoding: 119 119 90
Width: 364
GlyphClass: 1
Flags: W
LayerCount: 2
Fore
SplineSet
14 330 m 0,0,1
 33 330 33 330 42 294 c 2,2,-1
 73 138 l 1,3,-1
 131 247 l 2,4,5
 142 266 142 266 157 266 c 0,6,7
 170 266 170 266 181 247 c 2,8,-1
 235 132 l 1,9,-1
 269 303 l 2,10,11
 277 332 277 332 295 332 c 0,12,13
 323 332 323 332 323 288 c 0,14,15
 323 267 323 267 319 255 c 2,16,-1
 264 35 l 2,17,18
 256 -1 256 -1 239 -1 c 0,19,20
 227 -1 227 -1 220 19 c 2,21,-1
 214 35 l 1,22,-1
 173 150 l 2,23,24
 167 165 167 165 156 165 c 0,25,26
 144 165 144 165 138 150 c 2,27,-1
 90 38 l 2,28,29
 87 31 87 31 85 24 c 0,30,31
 78 1 78 1 65 1 c 0,32,33
 54 1 54 1 48 11 c 0,34,35
 45 18 45 18 40 38 c 2,36,-1
 -7 291 l 2,37,38
 -8 295 -8 295 -8 299 c 0,39,40
 -8 308 -8 308 -3 318 c 0,41,42
 3 328 3 328 14 330 c 0,0,1
EndSplineSet
EndChar

StartChar: x
Encoding: 120 120 91
Width: 364
GlyphClass: 1
Flags: W
LayerCount: 2
Fore
SplineSet
252 0 m 0,0,1
 238 0 238 0 223 19 c 2,2,-1
 152 104 l 1,3,4
 147 118 147 118 135 118 c 128,-1,5
 123 118 123 118 115 102 c 1,6,-1
 44 25 l 1,7,-1
 32 14 l 2,8,9
 17 3 17 3 11 3 c 1,10,-1
 10 4 l 1,11,12
 0 5 0 5 0 20 c 0,13,14
 0 25 0 25 1 32 c 0,15,16
 2 38 2 38 11 50 c 2,17,-1
 99 154 l 2,18,19
 105 160 105 160 105 166 c 128,-1,20
 105 172 105 172 99 179 c 2,21,-1
 14 287 l 2,22,23
 7 296 7 296 7 310 c 0,24,25
 7 323 7 323 18 330 c 0,26,27
 23 334 23 334 28 334 c 0,28,29
 38 334 38 334 50 318 c 2,30,-1
 116 240 l 2,31,32
 124 232 124 232 129.5 227.5 c 128,-1,33
 135 223 135 223 141 223 c 0,34,35
 153 223 153 223 168 240 c 2,36,-1
 229 304 l 2,37,38
 247 322 247 322 248 323 c 0,39,40
 256 329 256 329 265 329 c 0,41,42
 269 329 269 329 274 327 c 0,43,44
 281 320 281 320 281 311 c 0,45,46
 281 304 281 304 277 296 c 0,47,48
 274 291 274 291 270 287 c 2,49,-1
 175 180 l 2,50,51
 170 173 170 173 170 166 c 0,52,53
 170 162 170 162 175 155 c 2,54,-1
 267 42 l 2,55,56
 276 30 276 30 276 19 c 0,57,58
 276 14 276 14 274 8 c 0,59,60
 270 0 270 0 252 0 c 0,0,1
EndSplineSet
EndChar

StartChar: y
Encoding: 121 121 92
Width: 364
GlyphClass: 1
Flags: W
LayerCount: 2
Fore
SplineSet
146 146 m 0,0,1
 157 146 157 146 175 183 c 2,2,-1
 230 306 l 2,3,4
 241 329 241 329 256 330 c 0,5,6
 258 331 258 331 259 331 c 0,7,8
 267 331 267 331 273 324 c 0,9,10
 278 317 278 317 278 309 c 0,11,12
 278 299 278 299 272 287 c 2,13,-1
 169 60 l 1,14,-1
 128 -34 l 2,15,16
 103 -87 103 -87 83 -97 c 0,17,18
 59 -108 59 -108 39 -108 c 0,19,20
 31 -108 31 -108 24 -106 c 0,21,22
 18 -105 18 -105 16 -104 c 0,23,24
 13 -103 13 -103 12 -98 c 0,25,26
 11 -96 11 -96 11 -94 c 0,27,28
 11 -86 11 -86 20 -76 c 0,29,30
 26 -69 26 -69 39 -64 c 0,31,32
 68 -50 68 -50 91 -14 c 0,33,34
 108 13 108 13 110 28 c 0,35,36
 111 34 111 34 111 40 c 0,37,38
 111 67 111 67 98 101 c 0,39,40
 87 128 87 128 83 136 c 128,-1,41
 79 144 79 144 76 152 c 2,42,-1
 12 289 l 2,43,44
 5 302 5 302 5 312 c 0,45,46
 5 321 5 321 10 327 c 0,47,48
 15 336 15 336 26 336 c 0,49,50
 44 336 44 336 56 313 c 2,51,-1
 117 183 l 2,52,53
 133 146 133 146 146 146 c 0,0,1
EndSplineSet
EndChar

StartChar: z
Encoding: 122 122 93
Width: 364
GlyphClass: 1
Flags: W
LayerCount: 2
Fore
SplineSet
284 305 m 0,0,1
 284 276 284 276 271 263 c 2,2,-1
 88 75 l 2,3,4
 80 67 80 67 80 62 c 0,5,6
 80 56 80 56 88 52 c 0,7,8
 93 50 93 50 100 50 c 2,9,-1
 246 50 l 2,10,11
 274 50 274 50 281 38 c 0,12,13
 284 33 284 33 284 25 c 0,14,15
 284 2 284 2 260 0 c 0,16,17
 254 0 254 0 246 0 c 2,18,-1
 41 0 l 2,19,20
 3 0 3 0 3 25 c 0,21,22
 3 29 3 29 3 32 c 0,23,24
 3 54 3 54 16 67 c 2,25,-1
 193 255 l 2,26,27
 198 262 198 262 198 268 c 0,28,29
 198 273 198 273 192 278 c 0,30,31
 189 280 189 280 181 280 c 2,32,-1
 40 280 l 2,33,34
 17 280 17 280 6 294 c 0,35,36
 3 298 3 298 3 305 c 0,37,38
 3 318 3 318 16 325 c 0,39,40
 25 330 25 330 40 330 c 2,41,-1
 246 330 l 2,42,43
 269 330 269 330 280 318 c 0,44,45
 284 313 284 313 284 305 c 0,0,1
EndSplineSet
EndChar

StartChar: bar
Encoding: 124 124 94
Width: 364
GlyphClass: 1
Flags: W
LayerCount: 2
Fore
SplineSet
187 5 m 2,0,1
 186 -24 186 -24 172 -30 c 0,2,3
 169 -32 169 -32 164 -32 c 0,4,5
 160 -32 160 -32 154 -31 c 0,6,7
 138 -28 138 -28 138 5 c 1,8,-1
 138 5 l 1,9,-1
 139 570 l 2,10,11
 139 608 139 608 163 608 c 0,12,13
 167 608 167 608 173 606 c 0,14,15
 189 602 189 602 189 571 c 2,16,-1
 189 570 l 1,17,-1
 187 5 l 2,0,1
EndSplineSet
EndChar

StartChar: asciitilde
Encoding: 126 126 95
Width: 364
GlyphClass: 1
Flags: W
LayerCount: 2
Fore
SplineSet
210 208 m 0,0,1
 188 211 188 211 142 238 c 0,2,3
 124 247 124 247 109 247 c 0,4,5
 89 247 89 247 75 231 c 0,6,7
 56 209 56 209 39 209 c 0,8,9
 33 209 33 209 28 212 c 0,10,11
 13 218 13 218 13 233 c 0,12,13
 13 242 13 242 18 254 c 0,14,15
 30 281 30 281 66 295 c 0,16,17
 87 303 87 303 110 303 c 0,18,19
 123 303 123 303 137 301 c 1,20,21
 174 284 174 284 210 267 c 0,22,23
 225 261 225 261 239 261 c 0,24,25
 245 261 245 261 251 263 c 0,26,27
 263 265 263 265 275 280 c 0,28,29
 294 303 294 303 311 303 c 0,30,31
 321 303 321 303 331 295 c 0,32,33
 338 289 338 289 338 280 c 0,34,35
 338 265 338 265 322 242 c 0,36,37
 307 222 307 222 269 210 c 0,38,39
 255 206 255 206 238 206 c 0,40,41
 225 206 225 206 210 208 c 0,0,1
EndSplineSet
EndChar

StartChar: acute
Encoding: 180 180 98
Width: 364
GlyphClass: 1
Flags: W
LayerCount: 2
Fore
SplineSet
86 383 m 1,0,-1
 227 493 l 2,1,2
 252 513 252 513 260 513 c 0,3,4
 261 513 261 513 262 512 c 0,5,6
 285 503 285 503 285 489 c 0,7,8
 285 477 285 477 267 463 c 2,9,-1
 126 353 l 2,10,11
 101 333 101 333 93 333 c 0,12,13
 92 333 92 333 92 334 c 0,14,15
 80 340 80 340 77 345 c 0,16,17
 75 349 75 349 75 354 c 0,18,19
 75 366 75 366 86 383 c 1,0,-1
EndSplineSet
EndChar

StartChar: Adieresis
Encoding: 196 196 104
Width: 364
GlyphClass: 1
Flags: W
LayerCount: 2
Fore
SplineSet
267 533 m 0,0,1
 281 533 281 533 292 522 c 128,-1,2
 303 511 303 511 303 497 c 0,3,4
 303 482 303 482 292 471 c 0,5,6
 282 461 282 461 267 461 c 0,7,8
 244 461 244 461 234 482 c 0,9,10
 231 489 231 489 231 497 c 0,11,12
 231 510 231 510 242 522 c 0,13,14
 251 533 251 533 267 533 c 0,0,1
58 533 m 0,15,16
 81 533 81 533 91 510 c 0,17,18
 94 504 94 504 94 497 c 0,19,20
 94 483 94 483 84 471 c 0,21,22
 74 461 74 461 58 461 c 0,23,24
 35 461 35 461 25 482 c 0,25,26
 22 489 22 489 22 497 c 0,27,28
 22 511 22 511 33 522 c 128,-1,29
 44 533 44 533 58 533 c 0,15,16
16 1 m 0,30,31
 0 1 0 1 0 29 c 0,32,33
 0 33 0 33 0 37 c 0,34,35
 1 45 1 45 2 50 c 2,36,-1
 99 387 l 2,37,38
 115 440 115 440 159 440 c 0,39,40
 192 440 192 440 212 406 c 0,41,42
 219 395 219 395 223 380 c 2,43,-1
 314 44 l 2,44,45
 317 35 317 35 317 27 c 0,46,47
 317 1 317 1 291 1 c 0,48,49
 273 1 273 1 270 9 c 0,50,51
 268 14 268 14 266 22.5 c 128,-1,52
 264 31 264 31 260 44 c 2,53,-1
 246 94 l 2,54,55
 235 134 235 134 205 134 c 2,56,-1
 103 134 l 2,57,58
 73 134 73 134 66 103 c 2,59,-1
 52 40 l 2,60,61
 46 12 46 12 30 3 c 0,62,63
 25 1 25 1 20 1 c 0,64,65
 18 1 18 1 16 1 c 0,30,31
96 202 m 0,66,67
 96 187 96 187 124 187 c 2,68,-1
 176 187 l 2,69,70
 190 187 190 187 204 200 c 0,71,72
 215 209 215 209 215 218 c 0,73,74
 215 221 215 221 214 223 c 2,75,-1
 174 361 l 2,76,77
 172 369 172 369 158 380 c 0,78,79
 149 386 149 386 143 386 c 0,80,81
 139 386 139 386 137 383 c 2,82,-1
 98 217 l 2,83,84
 96 208 96 208 96 202 c 0,66,67
EndSplineSet
EndChar

StartChar: Aring
Encoding: 197 197 105
Width: 364
GlyphClass: 1
Flags: W
LayerCount: 2
Fore
SplineSet
16 1 m 0,0,1
 0 1 0 1 0 29 c 0,2,3
 0 33 0 33 0 37 c 0,4,5
 1 45 1 45 2 50 c 2,6,-1
 99 387 l 2,7,8
 100 392 100 392 100 396 c 0,9,10
 100 406 100 406 97 412 c 1,11,-1
 97 412 l 1,12,-1
 97 412 l 1,13,-1
 90 432 l 2,14,15
 83 451 83 451 83 481 c 0,16,17
 83 529 83 529 130 544 c 0,18,19
 146 549 146 549 168 549 c 0,20,21
 208 549 208 549 228 526 c 0,22,23
 243 508 243 508 243 475 c 0,24,25
 243 448 243 448 227 424 c 0,26,27
 217 408 217 408 217 394 c 0,28,29
 217 388 217 388 219 380 c 2,30,-1
 314 44 l 2,31,32
 317 35 317 35 317 28 c 0,33,34
 317 1 317 1 291 1 c 0,35,36
 273 1 273 1 270 9 c 0,37,38
 268 14 268 14 266 22.5 c 128,-1,39
 264 31 264 31 260 44 c 2,40,-1
 246 94 l 2,41,42
 235 134 235 134 205 134 c 2,43,-1
 103 134 l 2,44,45
 73 134 73 134 66 103 c 2,46,-1
 52 40 l 2,47,48
 46 12 46 12 30 3 c 0,49,50
 25 1 25 1 20 1 c 0,51,52
 18 1 18 1 16 1 c 0,0,1
98 217 m 2,53,54
 96 209 96 209 96 203 c 0,55,56
 96 191 96 191 108 188 c 0,57,58
 114 187 114 187 124 187 c 2,59,-1
 176 187 l 2,60,61
 190 187 190 187 204 200 c 0,62,63
 215 209 215 209 215 218 c 0,64,65
 215 221 215 221 214 223 c 2,66,-1
 174 361 l 2,67,68
 170 377 170 377 158 384 c 0,69,70
 154 386 154 386 150 386 c 0,71,72
 144 386 144 386 140 380 c 2,73,-1
 98 217 l 2,53,54
160 501 m 0,74,75
 137 501 137 501 128 481 c 0,76,77
 126 475 126 475 126 469 c 0,78,79
 126 446 126 446 146 438 c 0,80,81
 153 436 153 436 160 436 c 0,82,83
 181 436 181 436 191 456 c 0,84,85
 194 462 194 462 194 469 c 0,86,87
 194 481 194 481 184 492 c 0,88,89
 174 501 174 501 160 501 c 0,74,75
EndSplineSet
EndChar

StartChar: Odieresis
Encoding: 214 214 119
Width: 364
GlyphClass: 1
Flags: W
LayerCount: 2
Fore
SplineSet
48 525 m 0,0,1
 62 525 62 525 73 514 c 128,-1,2
 84 503 84 503 84 489 c 0,3,4
 84 474 84 474 73 463 c 0,5,6
 63 453 63 453 48 453 c 0,7,8
 23 453 23 453 14 474 c 0,9,10
 12 481 12 481 12 489 c 0,11,12
 12 512 12 512 34 522 c 0,13,14
 40 525 40 525 48 525 c 0,0,1
244 525 m 0,15,16
 259 525 259 525 270 514 c 0,17,18
 280 504 280 504 280 489 c 0,19,20
 280 464 280 464 258 456 c 0,21,22
 252 453 252 453 244 453 c 0,23,24
 221 453 221 453 211 474 c 0,25,26
 208 481 208 481 208 489 c 0,27,28
 208 503 208 503 219 514 c 128,-1,29
 230 525 230 525 244 525 c 0,15,16
281 289 m 2,30,-1
 281 148 l 2,31,32
 281 38 281 38 200 10 c 0,33,34
 177 1 177 1 146 1 c 0,35,36
 143 1 143 1 140 1 c 0,37,38
 0 1 0 1 0 148 c 2,39,-1
 0 289 l 2,40,41
 0 436 0 436 140 436 c 0,42,43
 144 436 144 436 147 436 c 0,44,45
 244 436 244 436 272 354 c 0,46,47
 281 326 281 326 281 289 c 2,30,-1
231 145 m 2,48,-1
 231 292 l 2,49,50
 231 339 231 339 207.5 363 c 128,-1,51
 184 387 184 387 140 387 c 0,52,53
 50 385 50 385 50 292 c 2,54,-1
 50 145 l 2,55,56
 50 98 50 98 73 74 c 128,-1,57
 96 50 96 50 140 50 c 128,-1,58
 184 50 184 50 207.5 74 c 128,-1,59
 231 98 231 98 231 145 c 2,48,-1
EndSplineSet
EndChar

StartChar: Udieresis
Encoding: 220 220 124
Width: 364
GlyphClass: 1
Flags: W
LayerCount: 2
Fore
SplineSet
0 430 m 2,0,1
 0 465 0 465 16 466 c 0,2,3
 20 467 20 467 25 467 c 0,4,5
 38 467 38 467 42 462 c 0,6,7
 50 455 50 455 50 430 c 2,8,-1
 50 144 l 2,9,10
 50 101 50 101 79 74 c 0,11,12
 105 50 105 50 145 50 c 0,13,14
 205 50 205 50 224 96 c 0,15,16
 231 111 231 111 231 130 c 2,17,-1
 231 430 l 2,18,19
 231 465 231 465 246 466 c 0,20,21
 251 467 251 467 256 467 c 0,22,23
 268 467 268 467 272 462 c 0,24,25
 281 454 281 454 281 430 c 2,26,-1
 281 108 l 2,27,28
 281 66 281 66 240 32 c 0,29,30
 202 0 202 0 145 0 c 0,31,32
 121 0 121 0 92 9 c 0,33,34
 69 16 69 16 46 34 c 0,35,36
 14 58 14 58 4 96 c 0,37,38
 0 109 0 109 0 123 c 2,39,-1
 0 430 l 2,0,1
36 579 m 0,40,41
 49 579 49 579 61 568 c 0,42,43
 72 559 72 559 72 543 c 0,44,45
 72 520 72 520 50 510 c 0,46,47
 43 507 43 507 36 507 c 0,48,49
 22 507 22 507 10 518 c 0,50,51
 0 526 0 526 0 543 c 0,52,53
 0 566 0 566 22 576 c 0,54,55
 28 579 28 579 36 579 c 0,40,41
250 579 m 0,56,57
 263 579 263 579 275 568 c 0,58,59
 286 559 286 559 286 543 c 0,60,61
 286 520 286 520 264 510 c 0,62,63
 257 507 257 507 250 507 c 0,64,65
 236 507 236 507 224 518 c 0,66,67
 214 526 214 526 214 543 c 0,68,69
 214 566 214 566 236 576 c 0,70,71
 242 579 242 579 250 579 c 0,56,57
EndSplineSet
EndChar

StartChar: aring
Encoding: 229 229 131
Width: 364
GlyphClass: 1
Flags: W
LayerCount: 2
Fore
SplineSet
0 91 m 0,0,1
 0 165 0 165 63 180 c 0,2,3
 92 186 92 186 130 186 c 2,4,-1
 193 186 l 2,5,6
 219 186 219 186 219 223 c 0,7,8
 219 257 219 257 177 272 c 0,9,10
 163 277 163 277 145 277 c 0,11,12
 97 274 97 274 76 246 c 0,13,14
 69 238 69 238 63 228 c 0,15,16
 58 219 58 219 45 216 c 0,17,18
 41 214 41 214 37 214 c 0,19,20
 31 214 31 214 25 217 c 0,21,22
 11 224 11 224 11 253 c 0,23,24
 11 286 11 286 50 308 c 0,25,26
 88 329 88 329 141 329 c 0,27,28
 146 329 146 329 150 329 c 0,29,30
 209 329 209 329 244 296 c 0,31,32
 274 266 274 266 274 221 c 2,33,-1
 274 66 l 2,34,35
 274 57 274 57 281 43 c 0,36,37
 287 31 287 31 287 22 c 0,38,39
 287 12 287 12 272 6 c 0,40,41
 264 4 264 4 258 4 c 128,-1,42
 252 4 252 4 246 6 c 0,43,44
 224 16 224 16 216 16 c 0,45,46
 209 16 209 16 206 14 c 0,47,48
 204 12 204 12 201 11 c 128,-1,49
 198 10 198 10 194 8 c 0,50,51
 192 6 192 6 172 2 c 0,52,53
 160 0 160 0 130 0 c 2,54,-1
 112 0 l 2,55,56
 96 0 96 0 69 5 c 0,57,58
 34 11 34 11 14 38 c 0,59,60
 0 58 0 58 0 91 c 0,0,1
138 140 m 0,61,62
 87 138 87 138 70 128 c 0,63,64
 50 118 50 118 50 93 c 128,-1,65
 50 68 50 68 68 58 c 0,66,67
 85 48 85 48 122 48 c 0,68,69
 128 48 128 48 135 48 c 0,70,71
 200 48 200 48 215 77 c 0,72,73
 219 85 219 85 219 93 c 0,74,75
 219 118 219 118 202 128 c 0,76,77
 183 140 183 140 138 140 c 0,61,62
142 517 m 256,78,79
 174 517 174 517 196 496 c 0,80,81
 218 473 218 473 218 443 c 0,82,83
 218 412 218 412 196 391 c 0,84,85
 172 369 172 369 142 369 c 128,-1,86
 112 369 112 369 88 391 c 0,87,88
 66 412 66 412 66 443 c 0,89,90
 66 473 66 473 88 496 c 0,91,92
 110 517 110 517 142 517 c 256,78,79
139 476 m 0,93,94
 125 476 125 476 114 466 c 0,95,96
 104 458 104 458 104 443 c 0,97,98
 104 423 104 423 126 413 c 0,99,100
 132 410 132 410 139 410 c 0,101,102
 152 410 152 410 164 420 c 0,103,104
 174 430 174 430 174 443 c 0,105,106
 174 465 174 465 152 474 c 0,107,108
 146 476 146 476 139 476 c 0,93,94
EndSplineSet
EndChar

StartChar: oslash
Encoding: 248 248 146
Width: 364
GlyphClass: 1
Flags: W
LayerCount: 2
Fore
SplineSet
-11 12 m 2,0,-1
 254 356 l 2,1,2
 270 377 270 377 282 377 c 0,3,4
 286 377 286 377 288 375 c 0,5,6
 306 368 306 368 306 354 c 0,7,8
 306 342 306 342 293 326 c 2,9,-1
 28 -18 l 2,10,11
 12 -38 12 -38 0 -38 c 0,12,13
 -3 -38 -3 -38 -6 -37 c 0,14,15
 -18 -31 -18 -31 -21 -26 c 0,16,17
 -23 -21 -23 -21 -23 -16 c 0,18,19
 -23 -5 -23 -5 -11 12 c 2,0,-1
281 183 m 2,20,-1
 281 148 l 2,21,22
 281 78 281 78 265 49 c 0,23,24
 252 26 252 26 232 16 c 0,25,26
 202 1 202 1 156 1 c 0,27,28
 148 1 148 1 140 1 c 0,29,30
 76 1 76 1 48 14 c 0,31,32
 26 25 26 25 16 45 c 0,33,34
 0 76 0 76 0 148 c 2,35,-1
 0 183 l 2,36,37
 0 271 0 271 31 302 c 0,38,39
 59 330 59 330 123 330 c 0,40,41
 131 330 131 330 140 330 c 0,42,43
 219 330 219 330 250 301 c 0,44,45
 281 271 281 271 281 183 c 2,20,-1
231 145 m 2,46,-1
 231 186 l 2,47,48
 231 237 231 237 214 257 c 0,49,50
 195 280 195 280 147 280 c 0,51,52
 144 280 144 280 140 280 c 0,53,54
 86 280 86 280 66 256 c 0,55,56
 50 237 50 237 50 186 c 2,57,-1
 50 145 l 2,58,59
 50 92 50 92 68 72 c 0,60,61
 88 50 88 50 140 50 c 0,62,63
 193 50 193 50 212 71 c 128,-1,64
 231 92 231 92 231 145 c 2,46,-1
EndSplineSet
EndChar

StartChar: dotlessi
Encoding: 305 305 153
Width: 364
GlyphClass: 1
Flags: W
LayerCount: 2
Fore
SplineSet
87 0 m 2,0,1
 52 0 52 0 50 16 c 0,2,3
 50 20 50 20 50 25 c 0,4,5
 50 39 50 39 54 43 c 0,6,7
 63 50 63 50 87 50 c 2,8,-1
 121 50 l 2,9,10
 139 50 139 50 142.5 53.5 c 128,-1,11
 146 57 146 57 146 75 c 2,12,-1
 146 250 l 2,13,14
 146 263 146 263 130 272 c 0,15,16
 125 275 125 275 121 275 c 0,17,18
 77 275 77 275 74 290 c 0,19,20
 73 295 73 295 73 300 c 0,21,22
 73 315 73 315 94 322 c 0,23,24
 101 325 101 325 111 325 c 2,25,-1
 158 325 l 2,26,27
 194 325 194 325 196 300 c 0,28,29
 196 293 196 293 196 287 c 2,30,-1
 196 75 l 2,31,32
 196 57 196 57 199 54 c 0,33,34
 202 50 202 50 221 50 c 2,35,-1
 242 50 l 2,36,37
 278 50 278 50 280 34 c 0,38,39
 280 30 280 30 280 25 c 0,40,41
 280 11 280 11 276 7 c 0,42,43
 267 0 267 0 242 0 c 2,44,-1
 87 0 l 2,0,1
EndSplineSet
EndChar

StartChar: gravecomb
Encoding: 768 768 154
Width: 364
GlyphClass: 1
Flags: W
LayerCount: 2
Fore
SplineSet
202 382 m 0,0,1
 204 377 204 377 204 371 c 0,2,3
 204 366 204 366 202 361 c 0,4,5
 199 352 199 352 184 352 c 0,6,7
 174 354 174 354 163 359 c 0,8,9
 143 370 143 370 97 403 c 0,10,11
 76 418 76 418 72 432 c 0,12,13
 71 440 71 440 71 446 c 128,-1,14
 71 452 71 452 72 456 c 0,15,16
 76 468 76 468 88 470 c 0,17,18
 92 471 92 471 96 471 c 0,19,20
 110 471 110 471 123 463 c 0,21,22
 137 455 137 455 185 405 c 0,23,24
 198 392 198 392 202 382 c 0,0,1
EndSplineSet
EndChar

StartChar: acutecomb
Encoding: 769 769 155
Width: 364
GlyphClass: 1
Flags: W
LayerCount: 2
Fore
SplineSet
132 382 m 0,0,1
 135 392 135 392 148 405 c 0,2,3
 196 455 196 455 210 463 c 0,4,5
 223 471 223 471 237 471 c 0,6,7
 241 471 241 471 245 470 c 0,8,9
 257 468 257 468 261 456 c 0,10,11
 262 452 262 452 262 446 c 128,-1,12
 262 440 262 440 260 432 c 0,13,14
 257 418 257 418 236 403 c 0,15,16
 190 370 190 370 170 359 c 0,17,18
 159 354 159 354 149 352 c 0,19,20
 134 352 134 352 131 361 c 0,21,22
 129 366 129 366 129 371 c 0,23,24
 129 377 129 377 132 382 c 0,0,1
EndSplineSet
EndChar

StartChar: uni0302
Encoding: 770 770 156
Width: 364
GlyphClass: 1
Flags: W
LayerCount: 2
Fore
SplineSet
236 354 m 2,0,-1
 223 366 l 1,1,-1
 153 436 l 1,2,-1
 73 360 l 2,3,4
 60 348 60 348 47 348 c 0,5,6
 44 348 44 348 42 349 c 0,7,8
 31 350 31 350 31 370 c 0,9,10
 31 384 31 384 46 399 c 2,11,-1
 108 460 l 1,12,-1
 119 471 l 2,13,14
 137 488 137 488 150 488 c 0,15,16
 169 488 169 488 183 472 c 2,17,-1
 263 391 l 2,18,19
 275 380 275 380 275 369 c 0,20,21
 275 363 275 363 271 356 c 0,22,23
 265 346 265 346 255 346 c 0,24,25
 247 346 247 346 236 354 c 2,0,-1
EndSplineSet
EndChar

StartChar: tildecomb
Encoding: 771 771 157
Width: 364
GlyphClass: 1
Flags: W
LayerCount: 2
Fore
SplineSet
176 363 m 0,0,1
 159 365 159 365 124 387 c 0,2,3
 111 394 111 394 99 394 c 0,4,5
 84 394 84 394 73 381 c 0,6,7
 59 364 59 364 46 364 c 0,8,9
 42 364 42 364 38 366 c 0,10,11
 26 371 26 371 26 383 c 0,12,13
 26 390 26 390 30 399 c 0,14,15
 39 421 39 421 66 432 c 0,16,17
 83 439 83 439 100 439 c 0,18,19
 110 439 110 439 121 437 c 0,20,21
 148 424 148 424 176 410 c 0,22,23
 188 405 188 405 198 405 c 0,24,25
 203 405 203 405 207 407 c 0,26,27
 216 408 216 408 226 421 c 0,28,29
 240 439 240 439 253 439 c 0,30,31
 261 439 261 439 268 433 c 0,32,33
 274 428 274 428 274 420 c 0,34,35
 274 409 274 409 261 390 c 0,36,37
 250 374 250 374 221 365 c 0,38,39
 210 361 210 361 197 361 c 0,40,41
 187 361 187 361 176 363 c 0,0,1
EndSplineSet
EndChar

StartChar: uni0308
Encoding: 776 776 158
Width: 364
GlyphClass: 1
Flags: W
LayerCount: 2
Fore
SplineSet
66 455 m 0,0,1
 81 455 81 455 92 444 c 0,2,3
 102 434 102 434 102 419 c 0,4,5
 102 394 102 394 80 386 c 0,6,7
 74 383 74 383 66 383 c 0,8,9
 43 383 43 383 33 404 c 0,10,11
 30 411 30 411 30 419 c 0,12,13
 30 433 30 433 41 444 c 128,-1,14
 52 455 52 455 66 455 c 0,0,1
221 455 m 0,15,16
 235 455 235 455 246 444 c 128,-1,17
 257 433 257 433 257 419 c 0,18,19
 257 404 257 404 246 393 c 0,20,21
 236 383 236 383 221 383 c 0,22,23
 196 383 196 383 188 404 c 0,24,25
 185 411 185 411 185 419 c 0,26,27
 185 442 185 442 206 452 c 0,28,29
 213 455 213 455 221 455 c 0,15,16
EndSplineSet
EndChar

StartChar: smallA
Encoding: 65539 -1 160
Width: 364
GlyphClass: 1
Flags: W
LayerCount: 2
Fore
SplineSet
16 1 m 0,0,1
 0 1 0 1 0 29 c 0,2,3
 0 33 0 33 0 37 c 0,4,5
 1 45 1 45 2 50 c 2,6,-1
 99 387 l 2,7,8
 115 440 115 440 159 440 c 0,9,10
 192 440 192 440 212 406 c 0,11,12
 219 395 219 395 223 380 c 2,13,-1
 314 44 l 2,14,15
 317 35 317 35 317 27 c 0,16,17
 317 1 317 1 291 1 c 0,18,19
 273 1 273 1 270 9 c 0,20,21
 268 14 268 14 266 22.5 c 128,-1,22
 264 31 264 31 260 44 c 2,23,-1
 246 94 l 2,24,25
 235 134 235 134 205 134 c 2,26,-1
 103 134 l 2,27,28
 73 134 73 134 66 103 c 2,29,-1
 52 40 l 2,30,31
 46 12 46 12 30 3 c 0,32,33
 25 1 25 1 20 1 c 0,34,35
 18 1 18 1 16 1 c 0,0,1
96 202 m 0,36,37
 96 187 96 187 124 187 c 2,38,-1
 176 187 l 2,39,40
 190 187 190 187 204 200 c 0,41,42
 215 209 215 209 215 218 c 0,43,44
 215 221 215 221 214 223 c 2,45,-1
 174 361 l 2,46,47
 172 369 172 369 158 380 c 0,48,49
 149 386 149 386 143 386 c 0,50,51
 139 386 139 386 137 383 c 2,52,-1
 98 217 l 2,53,54
 96 208 96 208 96 202 c 0,36,37
EndSplineSet
EndChar

StartChar: smallO
Encoding: 65540 -1 161
Width: 364
GlyphClass: 1
Flags: W
LayerCount: 2
Fore
SplineSet
281 289 m 2,0,-1
 281 148 l 2,1,2
 281 38 281 38 200 10 c 0,3,4
 177 1 177 1 146 1 c 0,5,6
 143 1 143 1 140 1 c 0,7,8
 0 1 0 1 0 148 c 2,9,-1
 0 289 l 2,10,11
 0 436 0 436 140 436 c 0,12,13
 144 436 144 436 147 436 c 0,14,15
 244 436 244 436 272 354 c 0,16,17
 281 326 281 326 281 289 c 2,0,-1
231 145 m 2,18,-1
 231 292 l 2,19,20
 231 339 231 339 207.5 363 c 128,-1,21
 184 387 184 387 140 387 c 0,22,23
 50 385 50 385 50 292 c 2,24,-1
 50 145 l 2,25,26
 50 98 50 98 73 74 c 128,-1,27
 96 50 96 50 140 50 c 128,-1,28
 184 50 184 50 207.5 74 c 128,-1,29
 231 98 231 98 231 145 c 2,18,-1
EndSplineSet
EndChar

StartChar: smallI
Encoding: 65541 -1 162
Width: 364
GlyphClass: 1
Flags: W
LayerCount: 2
Fore
SplineSet
50 414 m 0,0,1
 50 427 50 427 54 432 c 0,2,3
 62 439 62 439 87 439 c 2,4,-1
 193 439 l 2,5,6
 228 439 228 439 230 424 c 0,7,8
 230 419 230 419 230 414 c 0,9,10
 230 401 230 401 226 396 c 0,11,12
 218 389 218 389 193 389 c 0,13,14
 174 389 174 389 167 374 c 0,15,16
 165 369 165 369 165 364 c 2,17,-1
 165 75 l 2,18,19
 165 59 165 59 182 52 c 0,20,21
 187 50 187 50 193 50 c 0,22,23
 228 50 228 50 230 34 c 0,24,25
 230 30 230 30 230 25 c 0,26,27
 230 12 230 12 226 8 c 0,28,29
 218 0 218 0 193 0 c 2,30,-1
 87 0 l 2,31,32
 52 0 52 0 50 16 c 0,33,34
 50 20 50 20 50 25 c 0,35,36
 50 38 50 38 54 42 c 0,37,38
 62 50 62 50 87 50 c 0,39,40
 106 50 106 50 113 66 c 0,41,42
 115 70 115 70 115 75 c 2,43,-1
 115 364 l 2,44,45
 115 380 115 380 98 387 c 0,46,47
 93 389 93 389 87 389 c 0,48,49
 52 389 52 389 50 404 c 0,50,51
 50 409 50 409 50 414 c 0,0,1
EndSplineSet
EndChar

StartChar: uni01CE
Encoding: 462 462 163
Width: 364
Flags: WO
LayerCount: 2
Fore
SplineSet
55 392 m 5
 234 392 l 1
 234 355 l 1
 55 355 l 1
 55 392 l 5
EndSplineSet
Refer: 68 97 N 1 0 0 1 0 -3 2
EndChar

StartChar: uni0163
Encoding: 355 355 164
Width: 364
Flags: W
LayerCount: 2
Fore
SplineSet
151.272460938 10.2802734375 m 1,0,-1
 179 -3.583984375 l 1,1,-1
 133.383789062 -94.8154296875 l 1,2,-1
 105.657226562 -80.951171875 l 1,3,-1
 151.272460938 10.2802734375 l 1,0,-1
57 405 m 1048,4,-1
252 77 m 0,5,6
 271 77 271 77 276 62 c 1,7,8
 276 38 276 38 264 35 c 0,9,10
 234 28 234 28 192 3 c 0,11,12
 187 0 187 0 160 1 c 0,13,14
 84 1 84 1 58 59 c 0,15,16
 49 80 49 80 49 112 c 2,17,-1
 49 264 l 2,18,19
 49 272 49 272 42 279 c 0,20,21
 40 281 40 281 37 281 c 0,22,23
 0 281 0 281 0 295 c 2,24,-1
 0 306 l 2,25,26
 0 319 0 319 4 323 c 0,27,28
 12 331 12 331 37 331 c 0,29,30
 45 331 45 331 49 343 c 0,31,32
 50.0352941176 346.105882353 50.0352941176 346.105882353 50 349 c 2,33,-1
 49 431 l 2,34,35
 49 463 49 463 66 467 c 0,36,37
 70 468 70 468 74 468 c 0,38,39
 87 468 87 468 92 463 c 0,40,41
 99 456 99 456 99 431 c 2,42,-1
 99 346 l 2,43,44
 99 338 99 338 103 334.5 c 128,-1,45
 107 331 107 331 117 331 c 2,46,-1
 193 331 l 2,47,48
 227 331 227 331 230 315 c 0,49,50
 231 311 231 311 231 306 c 0,51,52
 231 294 231 294 226 289 c 0,53,54
 218 281 218 281 193 281 c 2,55,-1
 117 281 l 2,56,57
 107 281 107 281 103 277.5 c 128,-1,58
 99 274 99 274 99 264 c 2,59,-1
 99 112 l 2,60,61
 99 81 99 81 118 65 c 0,62,63
 128 57 128 57 160 51 c 0,64,65
 165 50 165 50 171 50 c 0,66,67
 196 50 196 50 225 67 c 0,68,69
 242 77 242 77 252 77 c 0,5,6
200 1326 m 1048,70,-1
EndSplineSet
EndChar
